<svg version="1.1" xmlns="http://www.w3.org/2000/svg" style="display: block;" viewBox="0 0 2048 2048" width="1024" height="1024" preserveAspectRatio="none" xmlns:c2pa="http://c2pa.org/manifest"><metadata><c2pa:manifest>AAAMZ2p1bWIAAAAeanVtZGMycGEAEQAQgAAAqgA4m3EDYzJwYQAAAAxBanVtYgAAAEdqdW1kYzJtYQARABCAAACqADibcQN1cm46YzJwYToxOWM1MDQzMS02YzNiLTQ4NWYtYjIwMi03Njc2ZmJiM2RmOGQAAAAB4mp1bWIAAAApanVtZGMyYXMAEQAQgAAAqgA4m3EDYzJwYS5hc3NlcnRpb25zAAAAAO1qdW1iAAAAQWp1bWRjYm9yABEAEIAAAKoAOJtxE2MycGEuYWN0aW9ucy52MgAAAAAYYzJzaJ9Gc8vJ8VBbeAFBVHTl3FoAAACkY2JvcqFnYWN0aW9uc4GjZmFjdGlvbmxjMnBhLmNyZWF0ZWRxZGlnaXRhbFNvdXJjZVR5cGV4Rmh0dHA6Ly9jdi5pcHRjLm9yZy9uZXdzY29kZXMvZGlnaXRhbHNvdXJjZXR5cGUvdHJhaW5lZEFsZ29yaXRobWljTWVkaWFrZGVzY3JpcHRpb252Q3JlYXRlZCBieSBSZWNyYWZ0IEFJLgAAAMRqdW1iAAAAQGp1bWRjYm9yABEAEIAAAKoAOJtxE2MycGEuaGFzaC5kYXRhAAAAABhjMnNofPMx4Jwikrg1+HndDf/GAQAAAHxjYm9ypWpleGNsdXNpb25zgaJlc3RhcnQY22ZsZW5ndGgZEIxkbmFtZW5qdW1iZiBtYW5pZmVzdGNhbGdmc2hhMjU2ZGhhc2hYIDhRzlOMbuB1w7KmEfa77URWCHuLeVsXQFScJlqHYwMEY3BhZEkAAAAAAAAAAAAAAAI0anVtYgAAACdqdW1kYzJjbAARABCAAACqADibcQNjMnBhLmNsYWltLnYyAAAAAgVjYm9ypmppbnN0YW5jZUlEeCx4bXA6aWlkOjk4ZTY4ZGNiLTAxZTEtNDE2ZS04M2I3LTdjNzc4NzgxMDNkOXRjbGFpbV9nZW5lcmF0b3JfaW5mb6NkbmFtZWpyZWNyYWZ0LmFpZ3ZlcnNpb254KDgxY2U4MmUyYzVjM2NiZmJlOGM2ZmJlMTc5ZDVmOGQ5MWM0MDljZTF3b3JnLmNvbnRlbnRhdXRoLmMycGFfcnNmMC45MC43aXNpZ25hdHVyZXhNc2VsZiNqdW1iZj0vYzJwYS91cm46YzJwYToxOWM1MDQzMS02YzNiLTQ4NWYtYjIwMi03Njc2ZmJiM2RmOGQvYzJwYS5zaWduYXR1cmVyY3JlYXRlZF9hc3NlcnRpb25zgqJjdXJseCpzZWxmI2p1bWJmPWMycGEuYXNzZXJ0aW9ucy9jMnBhLmFjdGlvbnMudjJkaGFzaFgg09MIHEe8AkvKPIyeYKA6FPIZO/opyvj0WCKC3whEBI2iY3VybHgpc2VsZiNqdW1iZj1jMnBhLmFzc2VydGlvbnMvYzJwYS5oYXNoLmRhdGFkaGFzaFggD10Ua/Txy0bBBBBGRHDuO5J4pYiFFUQCP1ZdmEn8n+ZoZGM6dGl0bGV4GlJlY3JhZnQgQUkgR2VuZXJhdGVkIEltYWdlY2FsZ2ZzaGEyNTYAAAfcanVtYgAAAChqdW1kYzJjcwARABCAAACqADibcQNjMnBhLnNpZ25hdHVyZQAAAAesY2JvctKEWQOwogEmGCGCWQHnMIIB4zCCAYmgAwIBAgIJALfeWmNDUW56MAoGCCqGSM49BAMCMEAxHzAdBgNVBAMMFlJlY3JhZnQgU3RhZ2luZyBEZXYgQ0ExEDAOBgNVBAoMB1JlY3JhZnQxCzAJBgNVBAYTAlVTMB4XDTI2MDYxMjE5NDM1MFoXDTI3MDYxMjE5NDM1MFowNzELMAkGA1UEBhMCVVMxEzARBgNVBAoTClJlY3JhZnQgQUkxEzARBgNVBAMTCnJlY3JhZnQuYWkwWTATBgcqhkjOPQIBBggqhkjOPQMBBwNCAARKaTVbACsg/DeG3LeOxYdID/VA6EFG73E6Oknb+KIiCFJygRUz4ueN2z/t2qYb6CIUvS8RvgOiiClfoqsYtw81o3UwczAMBgNVHRMBAf8EAjAAMA4GA1UdDwEB/wQEAwIGwDATBgNVHSUEDDAKBggrBgEFBQcDBDAdBgNVHQ4EFgQULzHpBen96SL1y4IPHa8MkMshXf0wHwYDVR0jBBgwFoAUAgsqOBrKqpdK//m/kxZo7ZR4ebcwCgYIKoZIzj0EAwIDSAAwRQIgU8hKW0aXvvk8SQgVFNkax69Ym9ae8GsT2RZTQw+B51ACIQC0D4BkEoRD4N0r2ZRkNy0HZaW3WICy/QZGN95ilF4yzFkBvTCCAbkwggFfoAMCAQICCQCc+Wg7T6ATbzAKBggqhkjOPQQDAjBAMR8wHQYDVQQDDBZSZWNyYWZ0IFN0YWdpbmcgRGV2IENBMRAwDgYDVQQKDAdSZWNyYWZ0MQswCQYDVQQGEwJVUzAeFw0yNjA2MTIxOTQwMTZaFw0yODA2MTExOTQwMTZaMEAxHzAdBgNVBAMMFlJlY3JhZnQgU3RhZ2luZyBEZXYgQ0ExEDAOBgNVBAoMB1JlY3JhZnQxCzAJBgNVBAYTAlVTMFkwEwYHKoZIzj0CAQYIKoZIzj0DAQcDQgAEQ9IQBlcVbKaKPYrQSfOhL/00s7xUDC7RinIuLO/I1k99y9yh6oWF9kPxaP+tx1v1PeOL3yrVquJ730H0ZGiDyqNCMEAwDwYDVR0TAQH/BAUwAwEB/zAOBgNVHQ8BAf8EBAMCAYYwHQYDVR0OBBYEFAILKjgayqqXSv/5v5MWaO2UeHm3MAoGCCqGSM49BAMCA0gAMEUCIFQwNImLlYDeQhjgF+ZiqTbgcuzSqmOJw3Q2lQ/hu83FAiEA9O8cLm/xfoVLqB4jtdbuHzi3WL+p2RN+DRGkwpYswVuhY3BhZFkDpAAAAAAAAAAAAAAAAAAAAAAAAAAAAAAAAAAAAAAAAAAAAAAAAAAAAAAAAAAAAAAAAAAAAAAAAAAAAAAAAAAAAAAAAAAAAAAAAAAAAAAAAAAAAAAAAAAAAAAAAAAAAAAAAAAAAAAAAAAAAAAAAAAAAAAAAAAAAAAAAAAAAAAAAAAAAAAAAAAAAAAAAAAAAAAAAAAAAAAAAAAAAAAAAAAAAAAAAAAAAAAAAAAAAAAAAAAAAAAAAAAAAAAAAAAAAAAAAAAAAAAAAAAAAAAAAAAAAAAAAAAAAAAAAAAAAAAAAAAAAAAAAAAAAAAAAAAAAAAAAAAAAAAAAAAAAAAAAAAAAAAAAAAAAAAAAAAAAAAAAAAAAAAAAAAAAAAAAAAAAAAAAAAAAAAAAAAAAAAAAAAAAAAAAAAAAAAAAAAAAAAAAAAAAAAAAAAAAAAAAAAAAAAAAAAAAAAAAAAAAAAAAAAAAAAAAAAAAAAAAAAAAAAAAAAAAAAAAAAAAAAAAAAAAAAAAAAAAAAAAAAAAAAAAAAAAAAAAAAAAAAAAAAAAAAAAAAAAAAAAAAAAAAAAAAAAAAAAAAAAAAAAAAAAAAAAAAAAAAAAAAAAAAAAAAAAAAAAAAAAAAAAAAAAAAAAAAAAAAAAAAAAAAAAAAAAAAAAAAAAAAAAAAAAAAAAAAAAAAAAAAAAAAAAAAAAAAAAAAAAAAAAAAAAAAAAAAAAAAAAAAAAAAAAAAAAAAAAAAAAAAAAAAAAAAAAAAAAAAAAAAAAAAAAAAAAAAAAAAAAAAAAAAAAAAAAAAAAAAAAAAAAAAAAAAAAAAAAAAAAAAAAAAAAAAAAAAAAAAAAAAAAAAAAAAAAAAAAAAAAAAAAAAAAAAAAAAAAAAAAAAAAAAAAAAAAAAAAAAAAAAAAAAAAAAAAAAAAAAAAAAAAAAAAAAAAAAAAAAAAAAAAAAAAAAAAAAAAAAAAAAAAAAAAAAAAAAAAAAAAAAAAAAAAAAAAAAAAAAAAAAAAAAAAAAAAAAAAAAAAAAAAAAAAAAAAAAAAAAAAAAAAAAAAAAAAAAAAAAAAAAAAAAAAAAAAAAAAAAAAAAAAAAAAAAAAAAAAAAAAAAAAAAAAAAAAAAAAAAAAAAAAAAAAAAAAAAAAAAAAAAAAAAAAAAAAAAAAAAAAAAAAAAAAAAAAAAAAAAAAAAAAAAAAAAAAAAAAAAAAAAAAAAAAAAAAAAAAAAAAAAAAAAAAAAAAAAAAAAAAAAA9lhAxicTHKlsRMDkhL9+IZCEYkxWosoUt8VxHHuK1VR+2d0cYmOS/FmH6A/70QsCZ83szwu40380pM721vQ17RT04A==</c2pa:manifest></metadata>
<path transform="translate(0,0)" fill="rgb(237,234,227)" d="M 1263.21 481.953 C 1266.6 474.549 1268.53 470.211 1273.89 463.959 C 1294.68 439.727 1335.95 440.004 1354.7 466.602 C 1357.08 469.981 1361.99 479.121 1365.07 481.075 C 1363.74 484.416 1365.56 489.751 1366.2 493.488 C 1368.19 505.11 1363.59 525.31 1359.11 535.929 L 1358.63 537.237 C 1353.38 551.897 1345.34 590.069 1341.19 607 C 1330.57 648.806 1320.27 690.696 1310.31 732.666 C 1305.92 751.901 1301.13 777.516 1295.7 795.84 C 1293.95 801.741 1274.18 828.868 1269.5 835.554 L 1228.96 894.08 C 1206.41 926.875 1184.68 953.949 1172.44 992.045 C 1168.45 1002.6 1163.82 1013 1160.77 1023.89 C 1155.12 1044.12 1157.84 1066.1 1156.84 1086.79 C 1153.93 1147.47 1158.35 1205.93 1167.07 1266.05 C 1183.26 1377.74 1203.47 1489.13 1223.06 1600.33 L 1243.17 1714.41 C 1247.14 1738 1255.13 1772.6 1252.42 1794.95 C 1249.71 1817 1236.16 1836.24 1216.31 1846.22 C 1199.34 1854.6 1178.6 1854.01 1160.97 1848.84 C 1148.63 1845.22 1127.31 1828.17 1123.29 1816.82 C 1112.03 1785.06 1107.03 1739.85 1101.08 1706.28 L 1055.4 1441.54 C 1051.93 1421.74 1048.6 1401.9 1045.41 1382.05 C 1043.75 1371.61 1042.37 1359.37 1040.24 1349.21 C 1030.3 1348.94 1018.22 1348.43 1008.56 1350.31 C 1003.83 1364.43 1000.67 1397.81 997.465 1414.11 C 990.843 1447.76 985.709 1482.51 979.052 1516.12 C 975.517 1533.97 973.429 1556.15 969.464 1573.16 C 967.753 1583.62 964.724 1603.53 961.89 1613.11 C 957.754 1648.54 948.973 1688.13 942.787 1723.59 C 939.796 1740.74 935.499 1777.47 930.989 1793.3 C 929.554 1841.81 874.58 1865.46 834.256 1846.68 C 817.038 1838.65 796.07 1815.82 795.57 1796.48 C 794.646 1760.78 804.802 1719.98 811.338 1684.53 L 831.151 1575.86 C 842.871 1511.64 853.927 1447.3 864.315 1382.86 C 881.186 1280.39 898.965 1183.01 890.139 1078.98 C 888.673 1061.7 891.595 1043.26 887.089 1026.17 C 884.033 1014.58 879.829 1003.98 875.626 992.813 C 864.546 955.428 844.085 927.623 821.034 896.714 C 806.662 877.444 793.11 856.26 779.815 835.989 C 769.506 820.27 755.096 805.467 747.512 788.139 C 742.18 770.514 736.884 744.741 732.821 726.439 L 701.569 591.714 C 698.283 577.966 692.495 547.897 688.361 536.102 C 682.596 518.999 680.293 498.628 684.75 481.095 C 693.783 465.079 699.273 455.23 718.73 449.374 C 732.244 445.306 750.305 446.437 762.434 453.537 C 775.782 461.351 779.352 468.263 784.739 481.801 C 840.346 483.948 901.863 482.715 957.86 482.703 L 1263.21 481.953 z M 935.649 865.509 C 975.127 867.716 1017.08 867.642 1056.61 867.402 C 1071.63 867.312 1098.11 867.813 1112.39 866.381 C 1128.77 855.78 1155.36 815.079 1170.54 799.693 C 1182.01 788.062 1194.63 770.616 1204.85 757.648 C 1207.92 753.146 1210.55 740.914 1211.63 735.471 C 1220 693.09 1228.29 650.54 1237.21 608.275 C 1240.02 594.906 1242.9 581.552 1245.85 568.213 C 1248.35 557.184 1251.39 547.857 1252.08 536.587 C 1235.48 535.425 1211.44 536.116 1194.41 536.13 L 1090.2 536.154 C 992.393 536.052 892.16 534.875 794.618 536.119 C 800.219 574.215 811.369 619.403 819.032 658.315 L 830.351 714.783 C 833.77 732.21 835.423 751.857 847.395 765.303 C 871.113 791.944 894.21 818.997 916.805 846.599 C 921.893 852.842 929.186 860.999 935.649 865.509 z M 685.503 497.74 C 686.638 494.137 688.349 492.181 685.278 489.647 L 684.446 490.798 C 682.229 493.647 683.855 494.965 685.503 497.74 z"/>
<path transform="translate(0,0)" fill="rgb(237,234,227)" d="M 1014.92 618.118 C 1078.5 613.024 1134.18 660.423 1139.3 724.002 C 1144.42 787.581 1097.04 843.277 1033.46 848.42 C 969.849 853.565 914.117 806.156 908.996 742.543 C 903.874 678.93 951.305 623.216 1014.92 618.118 z"/>
<path transform="translate(0,0)" fill="rgb(201,162,39)" d="M 784.739 481.801 C 840.346 483.948 901.863 482.715 957.86 482.703 L 1263.21 481.953 C 1260.3 500.383 1254.66 519.192 1252.08 536.587 C 1235.48 535.425 1211.44 536.116 1194.41 536.13 L 1090.2 536.154 C 992.393 536.052 892.16 534.875 794.618 536.119 C 792.77 519.898 785.476 496.376 784.739 481.801 z"/>
<path transform="translate(0,0)" fill="rgb(197,184,171)" d="M 965.249 1575.12 C 965.549 1576.78 965.435 1577.03 966.267 1578.31 L 966.182 1579.1 L 966.241 1579.17 C 966.273 1579.16 966.306 1579.14 966.338 1579.13 C 966.655 1576.98 966.272 1575.57 967.761 1573.78 C 968.255 1573.18 968.449 1573.33 969.464 1573.16 C 967.753 1583.62 964.724 1603.53 961.89 1613.11 C 962.101 1608.38 962.56 1599.85 962.087 1595.5 C 962.465 1589.39 964.645 1581.73 965.249 1575.12 z"/>
<path transform="translate(0,0)" fill="rgb(197,184,171)" fill-opacity="0.741176" d="M 685.278 489.647 C 688.349 492.181 686.638 494.137 685.503 497.74 C 683.855 494.965 682.229 493.647 684.446 490.798 L 685.278 489.647 z"/>
<path transform="translate(0,0)" fill="rgb(201,162,39)" d="M 1453.11 317.389 C 1469.82 316.53 1487.57 317.881 1504.15 317.209 C 1534.27 315.989 1528.07 341.123 1528.31 363.44 L 1528.74 435.797 C 1529.36 491.301 1529.29 546.812 1528.53 602.315 C 1528.42 629.535 1528.98 656.772 1528.06 683.977 C 1527.74 693.384 1521.75 697.613 1513.13 699.41 C 1491.34 699.451 1468.23 700.001 1446.57 699.533 C 1442.6 696.906 1436.58 692.634 1436.27 687.622 C 1435.57 676.281 1435.83 663.453 1435.84 652.115 L 1435.95 577.812 L 1435.88 413 C 1435.88 386.493 1435.82 359.907 1435.94 333.4 C 1435.95 330.005 1436.26 326.567 1438.47 323.793 C 1442.15 319.185 1447.6 318.3 1453.11 317.389 z"/>
<path transform="translate(0,0)" fill="rgb(201,162,39)" d="M 538.213 317.398 C 551.783 316.485 595.566 314.793 607.28 321.263 C 609.551 322.955 611.278 323.932 611.549 326.97 C 615.265 368.638 613.322 414.259 613.259 455.825 L 613.357 607.53 C 613.315 631.184 613.311 654.84 613.03 678.49 C 612.896 689.722 611.892 696.726 599.671 699.398 C 515.772 699.236 521.2 714.432 521.874 631.905 L 522.042 562.649 L 521.887 404.335 C 521.817 382.304 521.373 360.296 521.174 338.272 C 521.054 324.986 525.667 319.932 538.213 317.398 z"/>
<path transform="translate(0,0)" fill="rgb(201,162,39)" d="M 1550.77 364.209 C 1563.71 363.508 1577.87 363.721 1590.89 363.763 C 1606.33 364.493 1627.56 359.296 1627.52 381.719 C 1627.38 460.001 1627.39 538.262 1627.37 616.54 C 1627.37 625.077 1627.9 634.762 1626.03 642.816 C 1624.7 648.563 1618.78 652.066 1614.32 653.981 C 1608.6 654.716 1601.29 654.656 1596.06 654.776 C 1534.31 656.432 1537.93 658.848 1537.38 600.777 C 1536.55 529.332 1537.21 457.903 1536.8 386.463 C 1536.73 375.221 1540.54 368.202 1550.77 364.209 z"/>
<path transform="translate(0,0)" fill="rgb(201,162,39)" d="M 434.806 364.323 C 446.921 363.579 493.222 361.723 502.344 365.319 C 506.221 366.847 509.903 370.877 511.312 374.768 C 513.38 380.477 513.169 608.595 512.561 632.757 C 512.458 636.853 512.223 641.706 510.323 645.397 C 507.678 650.534 502.975 652.264 497.767 653.896 C 482.811 655.313 459.637 654.159 443.693 654.639 C 434.431 654.917 429.322 651.486 423.684 644.849 C 421.562 633.497 422.213 601.764 422.169 589.074 L 422.692 466.115 C 422.748 438.631 421.337 402.365 423.529 374.767 C 423.895 370.161 430.918 366.324 434.806 364.323 z"/>
<path transform="translate(0,0)" fill="rgb(201,162,39)" d="M 356.916 482.265 C 371.669 481.6 399.392 481.535 413.94 482.494 C 414.264 500.59 414.882 518.117 413.853 536.161 C 410.197 536.109 406.541 536.096 402.886 536.123 C 392.259 536.03 344.688 540.739 343.84 525.525 C 342.912 508.877 336.615 487.493 356.916 482.265 z"/>
<path transform="translate(0,0)" fill="rgb(201,162,39)" d="M 1635.98 482.381 C 1651.28 481.544 1682.87 480.817 1697.62 483.618 C 1710.27 486.021 1707.96 522.08 1702.77 532.131 C 1693.94 537.995 1684.3 536.081 1673.86 536.077 L 1635.61 536.287 C 1635.57 518.317 1635.7 500.348 1635.98 482.381 z"/>
<path transform="translate(0,0)" fill="rgb(201,162,39)" d="M 1365.07 481.075 C 1384.47 481.307 1408.14 481.211 1426.96 482.182 C 1427.21 500.122 1427.18 518.065 1426.88 536.005 C 1404.65 535.952 1381.24 535.497 1359.11 535.929 C 1363.59 525.31 1368.19 505.11 1366.2 493.488 C 1365.56 489.751 1363.74 484.416 1365.07 481.075 z"/>
<path transform="translate(0,0)" fill="rgb(201,162,39)" d="M 622.034 482.208 C 642.941 481.515 663.685 482.086 684.75 481.095 C 680.293 498.628 682.596 518.999 688.361 536.102 C 666.26 535.978 644.159 535.972 622.058 536.083 C 622.2 518.117 621.858 500.279 622.034 482.208 z"/>
</svg>