<svg version="1.1" xmlns="http://www.w3.org/2000/svg" style="display: block;" viewBox="0 0 2048 2048" width="1024" height="1024" preserveAspectRatio="none" xmlns:c2pa="http://c2pa.org/manifest"><metadata><c2pa:manifest>AAAMZ2p1bWIAAAAeanVtZGMycGEAEQAQgAAAqgA4m3EDYzJwYQAAAAxBanVtYgAAAEdqdW1kYzJtYQARABCAAACqADibcQN1cm46YzJwYTpiYWMyMGIyYS1iMDg3LTQ3MTUtYWE2MS04YTU3OGNjMWY0ODIAAAAB4mp1bWIAAAApanVtZGMyYXMAEQAQgAAAqgA4m3EDYzJwYS5hc3NlcnRpb25zAAAAAO1qdW1iAAAAQWp1bWRjYm9yABEAEIAAAKoAOJtxE2MycGEuYWN0aW9ucy52MgAAAAAYYzJzaJDW/fymNUqXAUpzP0cII/kAAACkY2JvcqFnYWN0aW9uc4GjZmFjdGlvbmxjMnBhLmNyZWF0ZWRxZGlnaXRhbFNvdXJjZVR5cGV4Rmh0dHA6Ly9jdi5pcHRjLm9yZy9uZXdzY29kZXMvZGlnaXRhbHNvdXJjZXR5cGUvdHJhaW5lZEFsZ29yaXRobWljTWVkaWFrZGVzY3JpcHRpb252Q3JlYXRlZCBieSBSZWNyYWZ0IEFJLgAAAMRqdW1iAAAAQGp1bWRjYm9yABEAEIAAAKoAOJtxE2MycGEuaGFzaC5kYXRhAAAAABhjMnNoJ4xv1BGgs1zkaBFZRcA3RQAAAHxjYm9ypWpleGNsdXNpb25zgaJlc3RhcnQY22ZsZW5ndGgZEIxkbmFtZW5qdW1iZiBtYW5pZmVzdGNhbGdmc2hhMjU2ZGhhc2hYIIv3wQ7g9R1gk/HkWveK9r3CaYVz6zlWUxuyqa5e1AcBY3BhZEkAAAAAAAAAAAAAAAI0anVtYgAAACdqdW1kYzJjbAARABCAAACqADibcQNjMnBhLmNsYWltLnYyAAAAAgVjYm9ypmppbnN0YW5jZUlEeCx4bXA6aWlkOjlkYWM1ODRiLTQ4ZjktNDJkOC04NWQ2LWI4MGJlODg3MzE2NXRjbGFpbV9nZW5lcmF0b3JfaW5mb6NkbmFtZWpyZWNyYWZ0LmFpZ3ZlcnNpb254KDgxY2U4MmUyYzVjM2NiZmJlOGM2ZmJlMTc5ZDVmOGQ5MWM0MDljZTF3b3JnLmNvbnRlbnRhdXRoLmMycGFfcnNmMC45MC43aXNpZ25hdHVyZXhNc2VsZiNqdW1iZj0vYzJwYS91cm46YzJwYTpiYWMyMGIyYS1iMDg3LTQ3MTUtYWE2MS04YTU3OGNjMWY0ODIvYzJwYS5zaWduYXR1cmVyY3JlYXRlZF9hc3NlcnRpb25zgqJjdXJseCpzZWxmI2p1bWJmPWMycGEuYXNzZXJ0aW9ucy9jMnBhLmFjdGlvbnMudjJkaGFzaFggf3myAvXDKsuwdTh02Mvj0FGp5e6MY/u5pmcZznuPZn2iY3VybHgpc2VsZiNqdW1iZj1jMnBhLmFzc2VydGlvbnMvYzJwYS5oYXNoLmRhdGFkaGFzaFggqgCLXBIbj5GhAB5Ui9h717zwnu+1Rga7e4gCgxzEAPdoZGM6dGl0bGV4GlJlY3JhZnQgQUkgR2VuZXJhdGVkIEltYWdlY2FsZ2ZzaGEyNTYAAAfcanVtYgAAAChqdW1kYzJjcwARABCAAACqADibcQNjMnBhLnNpZ25hdHVyZQAAAAesY2JvctKEWQOwogEmGCGCWQHnMIIB4zCCAYmgAwIBAgIJALfeWmNDUW56MAoGCCqGSM49BAMCMEAxHzAdBgNVBAMMFlJlY3JhZnQgU3RhZ2luZyBEZXYgQ0ExEDAOBgNVBAoMB1JlY3JhZnQxCzAJBgNVBAYTAlVTMB4XDTI2MDYxMjE5NDM1MFoXDTI3MDYxMjE5NDM1MFowNzELMAkGA1UEBhMCVVMxEzARBgNVBAoTClJlY3JhZnQgQUkxEzARBgNVBAMTCnJlY3JhZnQuYWkwWTATBgcqhkjOPQIBBggqhkjOPQMBBwNCAARKaTVbACsg/DeG3LeOxYdID/VA6EFG73E6Oknb+KIiCFJygRUz4ueN2z/t2qYb6CIUvS8RvgOiiClfoqsYtw81o3UwczAMBgNVHRMBAf8EAjAAMA4GA1UdDwEB/wQEAwIGwDATBgNVHSUEDDAKBggrBgEFBQcDBDAdBgNVHQ4EFgQULzHpBen96SL1y4IPHa8MkMshXf0wHwYDVR0jBBgwFoAUAgsqOBrKqpdK//m/kxZo7ZR4ebcwCgYIKoZIzj0EAwIDSAAwRQIgU8hKW0aXvvk8SQgVFNkax69Ym9ae8GsT2RZTQw+B51ACIQC0D4BkEoRD4N0r2ZRkNy0HZaW3WICy/QZGN95ilF4yzFkBvTCCAbkwggFfoAMCAQICCQCc+Wg7T6ATbzAKBggqhkjOPQQDAjBAMR8wHQYDVQQDDBZSZWNyYWZ0IFN0YWdpbmcgRGV2IENBMRAwDgYDVQQKDAdSZWNyYWZ0MQswCQYDVQQGEwJVUzAeFw0yNjA2MTIxOTQwMTZaFw0yODA2MTExOTQwMTZaMEAxHzAdBgNVBAMMFlJlY3JhZnQgU3RhZ2luZyBEZXYgQ0ExEDAOBgNVBAoMB1JlY3JhZnQxCzAJBgNVBAYTAlVTMFkwEwYHKoZIzj0CAQYIKoZIzj0DAQcDQgAEQ9IQBlcVbKaKPYrQSfOhL/00s7xUDC7RinIuLO/I1k99y9yh6oWF9kPxaP+tx1v1PeOL3yrVquJ730H0ZGiDyqNCMEAwDwYDVR0TAQH/BAUwAwEB/zAOBgNVHQ8BAf8EBAMCAYYwHQYDVR0OBBYEFAILKjgayqqXSv/5v5MWaO2UeHm3MAoGCCqGSM49BAMCA0gAMEUCIFQwNImLlYDeQhjgF+ZiqTbgcuzSqmOJw3Q2lQ/hu83FAiEA9O8cLm/xfoVLqB4jtdbuHzi3WL+p2RN+DRGkwpYswVuhY3BhZFkDpAAAAAAAAAAAAAAAAAAAAAAAAAAAAAAAAAAAAAAAAAAAAAAAAAAAAAAAAAAAAAAAAAAAAAAAAAAAAAAAAAAAAAAAAAAAAAAAAAAAAAAAAAAAAAAAAAAAAAAAAAAAAAAAAAAAAAAAAAAAAAAAAAAAAAAAAAAAAAAAAAAAAAAAAAAAAAAAAAAAAAAAAAAAAAAAAAAAAAAAAAAAAAAAAAAAAAAAAAAAAAAAAAAAAAAAAAAAAAAAAAAAAAAAAAAAAAAAAAAAAAAAAAAAAAAAAAAAAAAAAAAAAAAAAAAAAAAAAAAAAAAAAAAAAAAAAAAAAAAAAAAAAAAAAAAAAAAAAAAAAAAAAAAAAAAAAAAAAAAAAAAAAAAAAAAAAAAAAAAAAAAAAAAAAAAAAAAAAAAAAAAAAAAAAAAAAAAAAAAAAAAAAAAAAAAAAAAAAAAAAAAAAAAAAAAAAAAAAAAAAAAAAAAAAAAAAAAAAAAAAAAAAAAAAAAAAAAAAAAAAAAAAAAAAAAAAAAAAAAAAAAAAAAAAAAAAAAAAAAAAAAAAAAAAAAAAAAAAAAAAAAAAAAAAAAAAAAAAAAAAAAAAAAAAAAAAAAAAAAAAAAAAAAAAAAAAAAAAAAAAAAAAAAAAAAAAAAAAAAAAAAAAAAAAAAAAAAAAAAAAAAAAAAAAAAAAAAAAAAAAAAAAAAAAAAAAAAAAAAAAAAAAAAAAAAAAAAAAAAAAAAAAAAAAAAAAAAAAAAAAAAAAAAAAAAAAAAAAAAAAAAAAAAAAAAAAAAAAAAAAAAAAAAAAAAAAAAAAAAAAAAAAAAAAAAAAAAAAAAAAAAAAAAAAAAAAAAAAAAAAAAAAAAAAAAAAAAAAAAAAAAAAAAAAAAAAAAAAAAAAAAAAAAAAAAAAAAAAAAAAAAAAAAAAAAAAAAAAAAAAAAAAAAAAAAAAAAAAAAAAAAAAAAAAAAAAAAAAAAAAAAAAAAAAAAAAAAAAAAAAAAAAAAAAAAAAAAAAAAAAAAAAAAAAAAAAAAAAAAAAAAAAAAAAAAAAAAAAAAAAAAAAAAAAAAAAAAAAAAAAAAAAAAAAAAAAAAAAAAAAAAAAAAAAAAAAAAAAAAAAAAAAAAAAAAAAAAAAAAAAAAAAAAAAAAAAAAAAAAAAAAAAAAAAAAAAAAAAAAAAAAAAAAAAAAAAAAAAAAAAAAAAAAAAAAAAAAAAAAAAAAAAAAAAAAAAAAAAAAAAAAAAAAAAAAAAAAAAAAAAAAA9lhAYmspLV/sUK1IlO2ktQ8UQNf3AJk9rKcHTjx4ee6bXBmFT6PmSVRz1bwT8hA0pjB4EO6FEjofM7RcQke2n/epZQ==</c2pa:manifest></metadata>
<path transform="translate(0,0)" fill="rgb(237,234,227)" d="M 611.608 608.035 C 632.999 547.609 698.599 552.029 724.384 608.544 C 766.218 609.104 808.058 609.196 849.895 608.821 L 1083.63 608.56 L 1250.22 608.549 C 1277.64 608.564 1308.69 609.354 1335.76 608.452 C 1337.39 606.31 1339.26 600.579 1340.34 597.684 C 1352.26 565.644 1395.2 555.579 1422.42 574.118 C 1435.87 583.281 1442.86 593.098 1448.58 608.178 C 1449.13 620.415 1450.73 655.616 1449.22 666.534 C 1448.32 679.055 1450.06 703 1450.07 717.228 L 1450.1 849.318 C 1450.15 868.511 1450.99 901.778 1447.65 919.498 C 1445.93 928.619 1442.23 937.253 1436.83 944.798 C 1426.68 959.025 1411.09 969.343 1393.76 972.177 C 1376.73 974.916 1359.27 971.883 1344.16 963.56 C 1328.92 955.146 1317.09 941.631 1305.08 929.224 C 1290.31 914.175 1275.61 899.051 1260.99 883.853 C 1250.2 872.682 1234 855.225 1221.7 846.567 L 1220.27 845.567 C 1214.75 865.156 1212.9 893.961 1209.62 915.183 L 1190.04 1045.9 C 1185.95 1072.37 1178.68 1103.68 1179.1 1130.87 C 1179.18 1136.32 1184.66 1155.07 1186.22 1160.97 L 1200.7 1215.61 L 1227.34 1314.53 C 1241.48 1365.82 1257.34 1418.8 1269.75 1470.62 C 1273.65 1486.91 1272.5 1526.08 1272.6 1544.14 L 1272.35 1677.31 C 1272.24 1710.53 1275.8 1776.54 1266.53 1804.63 C 1244.43 1871.6 1144.52 1871.9 1116.05 1809.62 C 1104.86 1785.14 1108.11 1732.79 1108.1 1706.13 L 1108.17 1564.94 C 1108.14 1540.36 1108.74 1511.77 1106.76 1487.51 C 1105.88 1476.7 1097.09 1450.63 1093.89 1439.36 C 1085.12 1407.76 1075.99 1376.26 1066.51 1344.86 C 1060.19 1323.43 1048.36 1276.26 1040.41 1257.94 L 1039.76 1256.45 C 1034.8 1254.74 1027.58 1252.75 1022.38 1254.42 C 1014.24 1257.04 1003.4 1303.32 1000.36 1313.84 L 971.467 1414.92 C 966.972 1430.33 952.862 1474.82 952.119 1488.11 C 950.736 1512.83 951.078 1546.66 951.058 1572.01 L 951.014 1707.24 C 951.026 1726.78 952.293 1767.26 950.301 1785.26 C 949.303 1795.18 946.373 1804.8 941.677 1813.59 C 920.191 1853.4 871.202 1867.29 830.945 1846.17 C 804.638 1832.37 787.914 1804 787.966 1774.44 C 788.006 1752 787.804 1728.81 787.838 1706 L 787.918 1583.89 L 787.777 1523.53 C 787.637 1506.13 786.63 1485.95 789.661 1469.07 C 791.06 1461.27 794.381 1450.93 796.48 1443.04 L 810.972 1388.99 L 855.314 1219.95 L 869.215 1167.27 C 871.355 1159.08 877.062 1138.76 877.373 1130.83 C 878.071 1113 872.367 1087.99 869.458 1069.66 L 852.127 958.419 L 842.617 891.033 C 840.966 878.688 839.528 860.554 836.211 849.275 L 835.753 847.744 C 822.207 853.926 815.753 864.64 805.456 873.854 C 774.686 901.389 734.013 965.244 692.299 971.786 C 672.263 975.077 651.751 970.073 635.48 957.927 C 625.803 950.837 617.246 941.358 613.168 929.924 C 604.491 905.59 608.031 827.486 608.329 797.263 L 608.816 712.926 C 608.955 699.214 611.66 679.738 609.416 667.042 C 608.052 658.348 608.929 633.949 609.238 624.357 L 609.757 624.296 C 612.448 626.313 614.099 626.401 615.823 623.489 C 616.688 616.833 618.886 609.295 611.608 608.035 z M 1205.09 667.876 L 1202.59 667.551 L 1200.68 667.628 C 1199.92 667.669 1192.33 667.656 1192.31 669.325 C 1192.84 670.174 1194.69 669.949 1195.48 669.978 C 1198.87 670.35 1200.87 670.703 1204.23 671.391 L 1206.18 671.755 C 1216.24 673.541 1222.22 677.913 1231.25 682.24 C 1280.21 705.693 1302.09 760.569 1337.45 797.742 L 1338.57 798.912 C 1340.44 775.78 1337.88 746.187 1337.44 722.206 C 1337.22 709.947 1336.7 676.778 1334.94 666.996 L 1252.25 667.07 C 1245.03 667.054 1209.75 666.45 1205.09 667.876 z M 859.81 670.896 C 865.068 671.08 913.203 670.284 913.732 669.492 C 913.694 669.395 913.656 669.298 913.617 669.201 C 910.821 667.922 873.409 667.63 868.919 667.862 L 866.732 667.824 C 825.028 664.933 767.283 667.158 723.949 666.762 C 722.748 671.543 722.861 692.838 722.725 699.789 C 722.164 728.332 718.469 766.164 722.31 794.064 C 733.502 783.704 742.74 770.795 751.599 758.375 C 778.618 720.498 811.088 680.041 859.81 670.896 z"/>
<path transform="translate(0,0)" fill="rgb(224,222,214)" fill-opacity="0.537255" d="M 868.919 667.862 C 873.409 667.63 910.821 667.922 913.617 669.201 C 913.656 669.298 913.694 669.395 913.732 669.492 C 913.203 670.284 865.068 671.08 859.81 670.896 C 862.205 670.395 863.703 670.194 866.109 669.92 C 867.472 669.953 873.577 670.069 874.652 669.491 C 873.542 668.922 870.458 668.306 868.919 667.862 z"/>
<path transform="translate(0,0)" fill="rgb(224,222,214)" fill-opacity="0.027451" d="M 1202.59 667.551 L 1205.09 667.876 L 1204.23 671.391 C 1200.87 670.703 1198.87 670.35 1195.48 669.978 C 1197.28 669.192 1198.91 668.484 1200.68 667.628 L 1202.59 667.551 z"/>
<path transform="translate(0,0)" fill="rgb(224,222,214)" fill-opacity="0.243137" d="M 866.732 667.824 L 868.919 667.862 C 870.458 668.306 873.542 668.922 874.652 669.491 C 873.577 670.069 867.472 669.953 866.109 669.92 L 866.732 667.824 z"/>
<path transform="translate(0,0)" fill="rgb(224,222,214)" fill-opacity="0.419608" d="M 1195.48 669.978 C 1194.69 669.949 1192.84 670.174 1192.31 669.325 C 1192.33 667.656 1199.92 667.669 1200.68 667.628 C 1198.91 668.484 1197.28 669.192 1195.48 669.978 z"/>
<path transform="translate(0,0)" fill="rgb(201,162,39)" d="M 724.384 608.544 C 766.218 609.104 808.058 609.196 849.895 608.821 L 1083.63 608.56 L 1250.22 608.549 C 1277.64 608.564 1308.69 609.354 1335.76 608.452 C 1333.48 623.011 1333.32 651.758 1334.94 666.996 L 1252.25 667.07 C 1245.03 667.054 1209.75 666.45 1205.09 667.876 L 1202.59 667.551 C 1184.87 665.678 1144.2 666.68 1125.21 666.657 L 974.265 666.69 L 900.266 666.904 C 894.072 666.935 871.706 666.633 866.732 667.824 C 825.028 664.933 767.283 667.158 723.949 666.762 C 726.034 657.144 724.889 619.263 724.384 608.544 z"/>
<path transform="translate(0,0)" fill="rgb(201,162,39)" d="M 347.677 608.713 C 348.48 581.317 345.956 552.197 348.585 524.957 C 350.095 509.304 360.842 490.581 371.437 479.142 C 387.175 461.953 409.154 451.8 432.445 450.96 C 456.115 449.827 479.252 458.227 496.682 474.281 C 516.934 493.131 524.42 515.861 524.373 542.911 C 524.335 564.576 524.088 586.996 524.789 608.618 C 553.292 608.897 581.796 608.924 610.299 608.701 C 609.328 615.523 609.253 617.418 609.238 624.357 C 608.929 633.949 608.052 658.348 609.416 667.042 C 581.849 666.596 552.304 666.807 524.747 667.1 C 524.379 683.323 524.262 699.551 524.396 715.778 C 524.484 748.836 526.071 768.295 502.579 795.677 C 487.259 813.532 464.582 823.431 441.089 824.646 C 416.831 825.898 393.079 817.399 375.122 801.041 C 355.142 782.711 347.533 759.403 347.497 732.916 C 347.467 711.232 347.947 688.795 347.145 667.177 C 332.973 666.667 275.543 670.671 267.175 663.666 C 263.351 660.465 262.792 654.77 262.574 650.093 C 262.186 641.793 259.824 619.613 265.828 613.683 C 274.783 604.839 332.889 609.138 347.677 608.713 z"/>
<path transform="translate(0,0)" fill="rgb(201,162,39)" d="M 1532.4 608.286 C 1533.42 560.708 1522.69 508.787 1560.23 475.04 C 1580.43 456.874 1598.88 450.493 1625.89 451.367 C 1648.57 452.146 1669.99 462.013 1685.32 478.746 C 1702 496.716 1708.72 516.966 1708.98 541.124 C 1709.22 563.574 1708.44 586.303 1708.99 608.699 C 1731.5 609.407 1755.05 608.166 1777.6 608.934 C 1795.51 609.544 1793.5 623.215 1793.31 636.565 C 1793.08 653.224 1797.62 667.759 1774.09 667.307 C 1752.67 667.967 1730.17 666.064 1709.01 667.025 C 1708.56 683.734 1708.44 700.451 1708.67 717.164 C 1708.81 750.744 1709.78 774.317 1682.95 799.94 C 1665.55 816.681 1642.09 825.649 1617.96 824.795 C 1594.33 823.932 1572.02 813.642 1556.03 796.222 C 1525.7 763.026 1533.13 726.339 1532.63 685.258 C 1532.56 679.184 1532.81 673.013 1533.04 666.944 C 1505.42 667.021 1476.72 667.473 1449.22 666.534 C 1450.73 655.616 1449.13 620.415 1448.58 608.178 C 1470.99 608.223 1511.61 609.671 1532.4 608.286 z"/>
<path transform="translate(0,0)" fill="rgb(237,234,227)" d="M 1020.2 309.431 C 1079.54 302.218 1135.19 352.302 1139.6 410.583 C 1141.01 430.98 1140.12 451.765 1140.35 472.169 C 1141.1 537.699 1104.47 585.051 1038.55 592.951 C 1030.33 593.07 1022.87 593.158 1014.79 592.171 C 960.71 585.706 917.805 538.709 917.41 483.99 C 917.052 434.368 908.509 385.33 945.786 345.793 C 968.182 322.038 987.319 311.32 1020.2 309.431 z"/>
<path transform="translate(0,0)" fill="rgb(224,222,214)" fill-opacity="0.913725" d="M 610.299 608.701 L 611.608 608.035 C 618.886 609.295 616.688 616.833 615.823 623.489 C 615.581 621.134 615.702 616.463 614.607 614.668 C 614.278 614.129 609.984 615.991 609.801 617.92 C 609.589 620.169 609.709 622.069 609.757 624.296 L 609.238 624.357 C 609.253 617.418 609.328 615.523 610.299 608.701 z"/>
<path transform="translate(0,0)" fill="rgb(224,222,214)" fill-opacity="0.380392" d="M 609.757 624.296 C 609.709 622.069 609.589 620.169 609.801 617.92 C 609.984 615.991 614.278 614.129 614.607 614.668 C 615.702 616.463 615.581 621.134 615.823 623.489 C 614.099 626.401 612.448 626.313 609.757 624.296 z"/>
</svg>