<svg version="1.1" xmlns="http://www.w3.org/2000/svg" style="display: block;" viewBox="0 0 2048 2048" width="1024" height="1024" preserveAspectRatio="none" xmlns:c2pa="http://c2pa.org/manifest"><metadata><c2pa:manifest>AAAMZ2p1bWIAAAAeanVtZGMycGEAEQAQgAAAqgA4m3EDYzJwYQAAAAxBanVtYgAAAEdqdW1kYzJtYQARABCAAACqADibcQN1cm46YzJwYTo2MGE5OTEzZC03M2U2LTQ2YTEtYjgwOS1lMTcwZGUxM2UxN2QAAAAB4mp1bWIAAAApanVtZGMyYXMAEQAQgAAAqgA4m3EDYzJwYS5hc3NlcnRpb25zAAAAAO1qdW1iAAAAQWp1bWRjYm9yABEAEIAAAKoAOJtxE2MycGEuYWN0aW9ucy52MgAAAAAYYzJzaBXEd0tH0JRItakZ1dO31/wAAACkY2JvcqFnYWN0aW9uc4GjZmFjdGlvbmxjMnBhLmNyZWF0ZWRxZGlnaXRhbFNvdXJjZVR5cGV4Rmh0dHA6Ly9jdi5pcHRjLm9yZy9uZXdzY29kZXMvZGlnaXRhbHNvdXJjZXR5cGUvdHJhaW5lZEFsZ29yaXRobWljTWVkaWFrZGVzY3JpcHRpb252Q3JlYXRlZCBieSBSZWNyYWZ0IEFJLgAAAMRqdW1iAAAAQGp1bWRjYm9yABEAEIAAAKoAOJtxE2MycGEuaGFzaC5kYXRhAAAAABhjMnNoR+Aj1xanVtvpPAcYJ2j91AAAAHxjYm9ypWpleGNsdXNpb25zgaJlc3RhcnQY22ZsZW5ndGgZEIxkbmFtZW5qdW1iZiBtYW5pZmVzdGNhbGdmc2hhMjU2ZGhhc2hYIDL7mtY5DBjsfHDhSc+Og7LBuC5OkI+4rEkamw2qZxkwY3BhZEkAAAAAAAAAAAAAAAI0anVtYgAAACdqdW1kYzJjbAARABCAAACqADibcQNjMnBhLmNsYWltLnYyAAAAAgVjYm9ypmppbnN0YW5jZUlEeCx4bXA6aWlkOjY1YmQxMmI4LTQxYjMtNDBkZC1hYTZmLTNhNjIxNTk1MjFhZXRjbGFpbV9nZW5lcmF0b3JfaW5mb6NkbmFtZWpyZWNyYWZ0LmFpZ3ZlcnNpb254KDgxY2U4MmUyYzVjM2NiZmJlOGM2ZmJlMTc5ZDVmOGQ5MWM0MDljZTF3b3JnLmNvbnRlbnRhdXRoLmMycGFfcnNmMC45MC43aXNpZ25hdHVyZXhNc2VsZiNqdW1iZj0vYzJwYS91cm46YzJwYTo2MGE5OTEzZC03M2U2LTQ2YTEtYjgwOS1lMTcwZGUxM2UxN2QvYzJwYS5zaWduYXR1cmVyY3JlYXRlZF9hc3NlcnRpb25zgqJjdXJseCpzZWxmI2p1bWJmPWMycGEuYXNzZXJ0aW9ucy9jMnBhLmFjdGlvbnMudjJkaGFzaFgg8Bu6mU2W3xzYTjcVbrhXrirKa0MmvoXjzJyLxSLgT3SiY3VybHgpc2VsZiNqdW1iZj1jMnBhLmFzc2VydGlvbnMvYzJwYS5oYXNoLmRhdGFkaGFzaFgg8tp8sxrXXawF/wELC7Vg/ktt6prYXYYxB1Rsrb8XFh5oZGM6dGl0bGV4GlJlY3JhZnQgQUkgR2VuZXJhdGVkIEltYWdlY2FsZ2ZzaGEyNTYAAAfcanVtYgAAAChqdW1kYzJjcwARABCAAACqADibcQNjMnBhLnNpZ25hdHVyZQAAAAesY2JvctKEWQOwogEmGCGCWQHnMIIB4zCCAYmgAwIBAgIJALfeWmNDUW56MAoGCCqGSM49BAMCMEAxHzAdBgNVBAMMFlJlY3JhZnQgU3RhZ2luZyBEZXYgQ0ExEDAOBgNVBAoMB1JlY3JhZnQxCzAJBgNVBAYTAlVTMB4XDTI2MDYxMjE5NDM1MFoXDTI3MDYxMjE5NDM1MFowNzELMAkGA1UEBhMCVVMxEzARBgNVBAoTClJlY3JhZnQgQUkxEzARBgNVBAMTCnJlY3JhZnQuYWkwWTATBgcqhkjOPQIBBggqhkjOPQMBBwNCAARKaTVbACsg/DeG3LeOxYdID/VA6EFG73E6Oknb+KIiCFJygRUz4ueN2z/t2qYb6CIUvS8RvgOiiClfoqsYtw81o3UwczAMBgNVHRMBAf8EAjAAMA4GA1UdDwEB/wQEAwIGwDATBgNVHSUEDDAKBggrBgEFBQcDBDAdBgNVHQ4EFgQULzHpBen96SL1y4IPHa8MkMshXf0wHwYDVR0jBBgwFoAUAgsqOBrKqpdK//m/kxZo7ZR4ebcwCgYIKoZIzj0EAwIDSAAwRQIgU8hKW0aXvvk8SQgVFNkax69Ym9ae8GsT2RZTQw+B51ACIQC0D4BkEoRD4N0r2ZRkNy0HZaW3WICy/QZGN95ilF4yzFkBvTCCAbkwggFfoAMCAQICCQCc+Wg7T6ATbzAKBggqhkjOPQQDAjBAMR8wHQYDVQQDDBZSZWNyYWZ0IFN0YWdpbmcgRGV2IENBMRAwDgYDVQQKDAdSZWNyYWZ0MQswCQYDVQQGEwJVUzAeFw0yNjA2MTIxOTQwMTZaFw0yODA2MTExOTQwMTZaMEAxHzAdBgNVBAMMFlJlY3JhZnQgU3RhZ2luZyBEZXYgQ0ExEDAOBgNVBAoMB1JlY3JhZnQxCzAJBgNVBAYTAlVTMFkwEwYHKoZIzj0CAQYIKoZIzj0DAQcDQgAEQ9IQBlcVbKaKPYrQSfOhL/00s7xUDC7RinIuLO/I1k99y9yh6oWF9kPxaP+tx1v1PeOL3yrVquJ730H0ZGiDyqNCMEAwDwYDVR0TAQH/BAUwAwEB/zAOBgNVHQ8BAf8EBAMCAYYwHQYDVR0OBBYEFAILKjgayqqXSv/5v5MWaO2UeHm3MAoGCCqGSM49BAMCA0gAMEUCIFQwNImLlYDeQhjgF+ZiqTbgcuzSqmOJw3Q2lQ/hu83FAiEA9O8cLm/xfoVLqB4jtdbuHzi3WL+p2RN+DRGkwpYswVuhY3BhZFkDpAAAAAAAAAAAAAAAAAAAAAAAAAAAAAAAAAAAAAAAAAAAAAAAAAAAAAAAAAAAAAAAAAAAAAAAAAAAAAAAAAAAAAAAAAAAAAAAAAAAAAAAAAAAAAAAAAAAAAAAAAAAAAAAAAAAAAAAAAAAAAAAAAAAAAAAAAAAAAAAAAAAAAAAAAAAAAAAAAAAAAAAAAAAAAAAAAAAAAAAAAAAAAAAAAAAAAAAAAAAAAAAAAAAAAAAAAAAAAAAAAAAAAAAAAAAAAAAAAAAAAAAAAAAAAAAAAAAAAAAAAAAAAAAAAAAAAAAAAAAAAAAAAAAAAAAAAAAAAAAAAAAAAAAAAAAAAAAAAAAAAAAAAAAAAAAAAAAAAAAAAAAAAAAAAAAAAAAAAAAAAAAAAAAAAAAAAAAAAAAAAAAAAAAAAAAAAAAAAAAAAAAAAAAAAAAAAAAAAAAAAAAAAAAAAAAAAAAAAAAAAAAAAAAAAAAAAAAAAAAAAAAAAAAAAAAAAAAAAAAAAAAAAAAAAAAAAAAAAAAAAAAAAAAAAAAAAAAAAAAAAAAAAAAAAAAAAAAAAAAAAAAAAAAAAAAAAAAAAAAAAAAAAAAAAAAAAAAAAAAAAAAAAAAAAAAAAAAAAAAAAAAAAAAAAAAAAAAAAAAAAAAAAAAAAAAAAAAAAAAAAAAAAAAAAAAAAAAAAAAAAAAAAAAAAAAAAAAAAAAAAAAAAAAAAAAAAAAAAAAAAAAAAAAAAAAAAAAAAAAAAAAAAAAAAAAAAAAAAAAAAAAAAAAAAAAAAAAAAAAAAAAAAAAAAAAAAAAAAAAAAAAAAAAAAAAAAAAAAAAAAAAAAAAAAAAAAAAAAAAAAAAAAAAAAAAAAAAAAAAAAAAAAAAAAAAAAAAAAAAAAAAAAAAAAAAAAAAAAAAAAAAAAAAAAAAAAAAAAAAAAAAAAAAAAAAAAAAAAAAAAAAAAAAAAAAAAAAAAAAAAAAAAAAAAAAAAAAAAAAAAAAAAAAAAAAAAAAAAAAAAAAAAAAAAAAAAAAAAAAAAAAAAAAAAAAAAAAAAAAAAAAAAAAAAAAAAAAAAAAAAAAAAAAAAAAAAAAAAAAAAAAAAAAAAAAAAAAAAAAAAAAAAAAAAAAAAAAAAAAAAAAAAAAAAAAAAAAAAAAAAAAAAAAAAAAAAAAAAAAAAAAAAAAAAAAAAAAAAAAAAAAAAAAAAAAAAAAAAAAAAAAAAAAAAAAAAAAAAAAAAAAAAAAAAAAAAAAAAAAAAAA9lhA2Wrvt/22LV6tzfv4zxmV+IIpUEAEsTLpwPZ2kTbToqA5iFZaREM6qLXxaCq6ZpiEQCx1y2wlLRG8QW6+n8ZhKg==</c2pa:manifest></metadata>
<path transform="translate(0,0)" fill="rgb(237,234,227)" d="M 1136.43 457.468 C 1136.6 461.892 1135.87 462.08 1137.98 465.07 C 1141.34 464.762 1143.77 462.27 1145.66 459.482 C 1161.27 436.433 1197.54 441.846 1216.04 458.533 C 1235.95 476.499 1244.68 509.935 1253.68 534.81 L 1282.5 613.888 C 1300.29 661.927 1316.72 710.751 1337.04 757.342 C 1345.41 776.536 1340.41 810.88 1324.94 824.075 C 1303.43 842.42 1262.5 860.666 1237.45 873.71 L 1140.5 924.302 C 1129.24 930.104 1102.44 942.347 1094.45 949.802 C 1091.6 962.836 1092.73 1006.96 1092.8 1023.06 L 1092.78 1200.44 C 1092.72 1233.59 1095.03 1280.51 1088.94 1312.47 C 1086.77 1323.83 1073.34 1338.95 1066.92 1348.42 C 1066.86 1370.86 1071.02 1397.64 1074.29 1419.94 C 1077.67 1442.94 1080.92 1465.95 1084.02 1488.99 L 1124.23 1784.6 L 1135.55 1863.27 C 1141.01 1903.7 1146.97 1935.32 1115.43 1967.07 C 1106.15 1976.42 1086.57 1985.73 1082.3 1994.59 C 1082.37 1995.22 1082.48 1996.76 1082.67 1997.28 C 1104.56 1997.89 1132.34 1996.7 1152.91 1997.95 C 1153.38 2007.9 1154.36 2034 1153 2043.16 L 1151.19 2048 L 1089.29 2048 L 950.183 2048 C 947.17 2046.04 944.595 2045.83 941.143 2045.57 C 943.543 2043.94 942.283 2044.61 946.031 2044.74 C 929.968 2041.86 884.011 2044.15 866.968 2044.03 C 793.196 2043.2 719.42 2042.83 645.643 2042.94 C 645.032 2028.01 645.207 2012.77 645.217 1997.8 C 668.453 1996.86 693.74 1997.91 717.369 1997.25 C 720.518 1993.13 721.54 1993.23 726.671 1991 C 707.543 1983.47 694.521 1978.67 680.369 1962.77 C 668.399 1949.32 660.261 1931.47 659.324 1913.43 C 658.028 1888.48 662.828 1862.32 666.527 1837.66 C 669.36 1818.12 672.077 1798.56 674.677 1778.98 L 713.804 1501.05 C 720.214 1455.34 730.734 1392.97 733.055 1348.2 C 725.82 1337.75 711.255 1323.52 709.028 1311.36 C 703.856 1283.12 705.779 1248.93 705.747 1220.12 L 705.662 1046.49 C 705.674 1018.14 706.956 976.084 704.79 949.039 C 695.868 942.367 670.661 930.375 659.514 924.69 L 550.869 868.837 C 529.994 858.256 508.847 847.823 488.679 836.614 C 466.053 824.039 454.675 790 463.251 766.171 C 482.273 713.322 502.651 660.261 522.246 607.532 L 551.153 529.842 C 561.625 500.974 568.693 467.11 597.302 451.606 C 641.283 426.957 702.563 466.967 691.948 517.622 C 687.28 539.893 675.716 566.504 667.585 588.317 L 627.842 696.792 C 621.285 714.507 613.058 733.283 607.261 750.849 C 633.614 765.317 660.79 778.606 687.387 792.659 C 701.695 800.219 727.248 816.233 742.178 820.23 C 749.852 822.285 820.427 821.941 830.95 820.7 C 823.979 812.783 818.9 809.778 810.811 803.466 C 796.482 792.453 785.142 778.023 777.829 761.496 C 767.853 739.231 766.618 717.705 766.444 693.687 C 766.275 670.525 764.662 645.143 767.491 622.237 C 768.516 613.277 770.678 604.483 773.925 596.069 C 790.304 553.453 830.619 517.974 876.427 511.401 C 893.486 508.953 908.625 507.728 924.908 514.173 C 928.062 512.702 929.334 512.387 932.599 511.49 C 937.076 512.929 942.81 514.61 947.144 516.179 C 949.724 519.085 970.154 526.638 975.287 530.335 C 1025.6 566.579 1039.09 608.058 1036.88 667.864 C 1035.27 711.304 1039.06 741.767 1012.96 781.498 C 1003.19 796.362 982.907 808.279 976.286 819.163 C 977.696 820.483 977.67 820.272 979.516 820.537 C 990.961 822.176 1049 822.826 1059.23 820.212 C 1072.18 816.906 1179.31 759.245 1192.57 749.366 C 1186.84 726.981 1175.27 698.378 1167.1 676.401 L 1134.61 587.104 C 1126.52 565.125 1117.97 543.9 1111.36 521.381 C 1103.51 494.598 1115.95 489.473 1121.92 469.154 C 1121.94 469.095 1133.62 460.352 1136.43 457.468 z M 1026.71 1994.38 C 1029.77 1992.97 1032.64 1992.19 1035.84 1991.2 C 1018.38 1982.3 1008.77 1981.89 993.814 1966.88 C 964.525 1937.46 964.014 1898.49 959.081 1858.85 L 949.545 1782.99 L 916.409 1521.46 C 914.68 1506.88 905.429 1423.9 900.264 1415.62 L 898.568 1414.96 C 893.531 1420.25 888.537 1470.59 887.304 1480.28 L 874.836 1577.59 L 845.019 1793.07 C 841.019 1822.97 836.732 1852.82 832.159 1882.63 C 829.793 1898.3 828.529 1914.33 824.327 1929.65 C 810.816 1978.88 781.123 1974.41 771.033 1995.07 C 773.76 1997.22 774.154 1997 778.445 1997.09 C 796.599 1997.48 814.959 1997.47 833.117 1997.48 L 928.94 1997.4 L 991.383 1997.31 C 998.638 1997.29 1019.37 1997.99 1025.59 1996.4 L 1026.71 1994.38 z"/>
<path transform="translate(0,0)" fill="rgb(201,162,39)" d="M 771.033 1995.07 C 773.76 1997.22 774.154 1997 778.445 1997.09 C 796.599 1997.48 814.959 1997.47 833.117 1997.48 L 928.94 1997.4 L 991.383 1997.31 C 998.638 1997.29 1019.37 1997.99 1025.59 1996.4 L 1026.71 1994.38 L 1028.65 1996.96 C 1034.66 1998.04 1077.36 1998.85 1082.67 1997.28 C 1104.56 1997.89 1132.34 1996.7 1152.91 1997.95 C 1153.38 2007.9 1154.36 2034 1153 2043.16 L 1151.19 2048 L 1089.29 2048 L 950.183 2048 C 947.17 2046.04 944.595 2045.83 941.143 2045.57 C 943.543 2043.94 942.283 2044.61 946.031 2044.74 C 929.968 2041.86 884.011 2044.15 866.968 2044.03 C 793.196 2043.2 719.42 2042.83 645.643 2042.94 C 645.032 2028.01 645.207 2012.77 645.217 1997.8 C 668.453 1996.86 693.74 1997.91 717.369 1997.25 C 723.936 1998.19 764.213 1998.48 770.481 1996.96 L 771.033 1995.07 z"/>
<path transform="translate(0,0)" fill="rgb(237,234,227)" d="M 1089.29 2048 C 1083.82 2045.03 1080.16 2046.38 1074.48 2045.35 C 1075.15 2045.32 1075.67 2045.35 1076.24 2044.96 C 1073.99 2043.72 1060.04 2043.54 1056.4 2043.5 L 1055.41 2043.5 C 1087.2 2043.4 1121.41 2042.22 1153 2043.16 L 1151.19 2048 L 1089.29 2048 z"/>
<path transform="translate(0,0)" fill="rgb(201,162,39)" d="M 954.158 43.7652 L 1511.46 43.8653 C 1512.09 56.3132 1512.3 77.1532 1511.32 89.4329 C 1484.75 88.884 1458.09 89.4886 1431.5 89.8824 C 1411.32 90.1812 1385.83 88.416 1366.21 90.1017 L 1366.01 1212.09 L 1365.97 1567.19 C 1365.96 1628.28 1364.79 1694.4 1366.18 1755.19 C 1374.32 1755.39 1387.91 1754.98 1395.2 1755.92 C 1396.25 1776.29 1395.15 1800.41 1395.42 1821.18 C 1396.11 1873.53 1395.02 1926.54 1395.91 1978.84 C 1395.61 1982.35 1395.69 1983.25 1395.96 1986.72 C 1393.47 1986.67 1391.18 1986.75 1388.7 1986.83 C 1386.1 1986.66 1385.61 1986.7 1383.07 1986.99 C 1380.68 1986.93 1378.5 1986.89 1376.11 1986.96 L 1297.76 1986.34 C 1296.47 1957.43 1297.21 1924.95 1297.34 1895.88 L 1297.39 1755.53 C 1315.02 1754.68 1333.48 1756.51 1351.97 1755.16 C 1352.79 1736.39 1352.07 1711.82 1352.04 1692.57 L 1351.99 1577.76 L 1351.94 1231.88 L 1352.02 89.1913 C 1281.46 88.2929 1210.61 89.6421 1140.02 89.0693 C 1122.62 88.9281 1103.94 88.699 1086.66 89.9381 C 1129.73 124.045 1122.85 190.537 1073.37 214.179 C 1063.89 218.707 1058.5 220 1048.1 222.104 C 1048.15 240.697 1045.61 309.091 1049.42 321.515 C 1053.55 334.958 1064.35 350.17 1072.49 361.608 C 1085.1 362.49 1088.36 368.652 1096.64 377.513 C 1109.1 391.664 1124.18 404.546 1135.94 419.228 C 1144.92 430.432 1143.02 445.907 1136.43 457.468 C 1133.62 460.352 1121.94 469.095 1121.92 469.154 C 1093.31 472.954 1082.86 461.186 1074.18 435.322 C 1068.06 417.061 1060.3 398.658 1055.65 379.956 C 1055 377.234 1057.39 371.138 1058.49 368.637 C 1052.09 356.568 1047.11 346.976 1039.01 335.864 C 1036.01 340.236 1019.44 363.888 1019.84 366.049 C 1024 388.493 1012.86 404.567 1006.97 426.727 C 1000.22 452.088 991.908 470.459 961.099 466.637 C 956.59 483.191 951.938 499.706 947.144 516.179 C 942.81 514.61 937.076 512.929 932.599 511.49 C 938.267 495.921 943.471 475.54 947.996 459.355 C 922.203 429.886 954.179 403.41 973.421 383.043 C 981.184 374.826 987.895 365.659 996.583 358.335 L 1007.22 357.726 C 1015.95 343.688 1024.77 331.115 1033.42 317.515 C 1033.29 286.015 1032.7 252.922 1033.75 221.576 C 1015.7 220.124 997.517 210.949 985.798 197.052 C 972.937 181.566 966.668 161.651 968.337 141.59 C 970.216 119.692 980.214 105.314 995.006 90.2261 C 981.621 88.682 967.966 89.1038 954.455 88.9936 C 954.065 73.9208 953.966 58.8419 954.158 43.7652 z M 1086.98 142.986 C 1087.65 148.948 1087.16 154.983 1085.54 160.76 C 1079.06 183.905 1056.06 198.339 1032.4 194.108 C 1008.74 189.877 992.162 168.365 994.102 144.408 C 996.043 120.451 1015.86 101.888 1039.9 101.52 C 1063.93 101.152 1084.31 119.1 1086.98 142.986 z M 1095.47 167.375 C 1098.38 161.766 1099.1 152.365 1099.15 146.126 C 1089.83 59.7171 971.598 81.586 984.578 159.512 C 986.989 173.857 995.024 186.646 1006.9 195.043 C 1019.91 204.464 1036.21 208.124 1051.99 205.163 C 1071.48 201.438 1089.05 186.109 1095.47 167.375 z M 1121.28 452.195 C 1138.33 431.484 1112.95 417.88 1100.02 403.214 C 1095.22 397.766 1078.86 378.261 1073.98 375.336 C 1073.36 376.18 1070.73 379.221 1071.12 380.513 C 1076.15 397.27 1084.03 414.189 1088.7 431.02 C 1093.05 446.696 1102.89 463.516 1121.28 452.195 z M 960.727 450.401 C 987.426 461.975 991.01 424.258 997.116 406.99 C 1000.21 398.251 1011.03 377.817 1003.66 372.614 C 989.498 386.034 977.105 402.634 963.044 416.528 C 952.65 426.8 948.977 439.733 960.727 450.401 z"/>
<path transform="translate(0,0)" fill="rgb(201,162,39)" d="M 1085.54 160.76 C 1079.06 183.905 1056.06 198.339 1032.4 194.108 C 1008.74 189.877 992.162 168.365 994.102 144.408 C 996.043 120.451 1015.86 101.888 1039.9 101.52 C 1063.93 101.152 1084.31 119.1 1086.98 142.986 C 1087.65 148.948 1087.16 154.983 1085.54 160.76 z"/>
<path transform="translate(0,0)" fill="rgb(244,244,243)" fill-opacity="0.415686" d="M 1086.98 142.986 L 1087.4 144.84 C 1088.19 148.543 1086.17 153.508 1090.78 150.893 C 1094.47 148.803 1095.25 150.737 1097.19 151.781 C 1097.64 151.561 1098.85 147.001 1099.15 146.126 C 1099.1 152.365 1098.38 161.766 1095.47 167.375 C 1091.54 164.612 1092.21 171.597 1085.54 160.76 C 1087.16 154.983 1087.65 148.948 1086.98 142.986 z M 1094.88 162.115 C 1095.7 159.627 1097.51 156.054 1093.56 158.437 C 1091.83 160.113 1093.18 160.25 1094.88 162.115 z"/>
<path transform="translate(0,0)" fill="rgb(244,244,243)" fill-opacity="0.439216" d="M 1093.56 158.437 C 1097.51 156.054 1095.7 159.627 1094.88 162.115 C 1093.18 160.25 1091.83 160.113 1093.56 158.437 z"/>
<path transform="translate(0,0)" fill="rgb(201,162,39)" d="M 1405.38 100.059 C 1423.15 100.017 1441.24 99.7964 1458.99 100.014 C 1460.05 119.48 1459.44 143.881 1459.45 163.615 L 1459.36 275.765 L 1459.12 612.018 L 1459.53 1704.7 L 1459.53 1891.43 C 1459.46 1920.98 1459.48 1950.63 1459.28 1980.18 C 1459.27 1983.19 1459.1 1985.82 1456.98 1988.07 C 1453.34 1986.78 1452.89 1986.36 1449.24 1986.97 C 1445.77 1986.83 1443.38 1986.68 1439.87 1986.92 C 1436.26 1986.97 1433.4 1986.87 1429.81 1986.68 C 1426.68 1985.74 1410.54 1986.32 1406.21 1986.38 C 1406.1 1981.68 1406.14 1977.16 1405.81 1972.47 C 1406.93 1899.09 1407 1825.7 1406.03 1752.33 L 1405.19 1551.5 L 1405.8 612.002 L 1405.11 262.793 C 1405.1 209.955 1404.02 152.584 1405.38 100.059 z"/>
<path transform="translate(0,0)" fill="rgb(201,162,39)" d="M 1449.24 1986.97 C 1452.89 1986.36 1453.34 1986.78 1456.98 1988.07 C 1456.2 1990.8 1454.86 1993.2 1453.85 1996.63 C 1495.74 1998.53 1542.38 1996.65 1584.78 1997.3 C 1585.05 2011.03 1585.93 2034.88 1584.02 2048 L 1308.56 2048 L 1306.54 2045 C 1299.04 2041.76 1266.55 2042.96 1255.89 2042.84 L 1255.94 1997.69 C 1273.39 1996 1301.35 1998.77 1317.42 1996.08 L 1318.31 1994.72 L 1320.02 1994.43 C 1339.47 1992.24 1348.81 1991.94 1368.22 1991.77 C 1380.72 1994.23 1381.74 1987.16 1393.15 1997.12 C 1397.92 1997.16 1402.7 1997.16 1407.47 1997.12 C 1409.98 1995.17 1410.91 1994.32 1413.7 1992.82 C 1414.58 1992.65 1414.26 1992.74 1414.74 1992.57 C 1422.21 1991.48 1427.22 1990.92 1434.8 1990.97 C 1440 1991.06 1447.44 1992.64 1449.24 1986.97 z"/>
<path transform="translate(0,0)" fill="rgb(237,234,227)" d="M 1320.02 1994.43 C 1339.47 1992.24 1348.81 1991.94 1368.22 1991.77 C 1380.72 1994.23 1381.74 1987.16 1393.15 1997.12 C 1383.42 1997.05 1323.57 1998.4 1320.82 1995.32 L 1320.02 1994.43 z"/>
<path transform="translate(0,0)" fill="rgb(237,234,227)" d="M 1449.24 1986.97 C 1452.89 1986.36 1453.34 1986.78 1456.98 1988.07 C 1456.2 1990.8 1454.86 1993.2 1453.85 1996.63 C 1448.72 1998.04 1414.78 1997.06 1407.47 1997.12 C 1409.98 1995.17 1410.91 1994.32 1413.7 1992.82 C 1414.58 1992.65 1414.26 1992.74 1414.74 1992.57 C 1422.21 1991.48 1427.22 1990.92 1434.8 1990.97 C 1440 1991.06 1447.44 1992.64 1449.24 1986.97 z"/>
<path transform="translate(0,0)" fill="rgb(237,234,227)" fill-opacity="0.596078" d="M 1405.54 1973.64 L 1405.81 1972.47 C 1406.14 1977.16 1406.1 1981.68 1406.21 1986.38 C 1410.54 1986.32 1426.68 1985.74 1429.81 1986.68 C 1426.97 1986.86 1410.48 1986.29 1409.25 1987.54 C 1409.52 1988.1 1413.57 1992.06 1414.74 1992.57 C 1414.26 1992.74 1414.58 1992.65 1413.7 1992.82 C 1410.47 1993.4 1409.23 1993.74 1406.09 1994.77 C 1400.57 1994.28 1406.07 1990.96 1395.96 1986.72 C 1398.76 1984.31 1400.36 1979.26 1403.41 1979.09 C 1403.9 1979.39 1404.03 1979.92 1404.49 1980.23 C 1405.04 1978.45 1405.28 1975.55 1405.54 1973.64 z"/>
<path transform="translate(0,0)" fill="rgb(244,244,243)" fill-opacity="0.0352941" d="M 1414.74 1992.57 C 1413.57 1992.06 1409.52 1988.1 1409.25 1987.54 C 1410.48 1986.29 1426.97 1986.86 1429.81 1986.68 C 1433.4 1986.87 1436.26 1986.97 1439.87 1986.92 C 1443.61 1990.72 1438.87 1990.02 1434.8 1990.97 C 1427.22 1990.92 1422.21 1991.48 1414.74 1992.57 z"/>
<path transform="translate(0,0)" fill="rgb(244,244,243)" fill-opacity="0.819608" d="M 1383.07 1986.99 C 1385.61 1986.7 1386.1 1986.66 1388.7 1986.83 C 1391.38 1988.56 1395.33 1989.26 1395.14 1992.37 C 1394.83 1997.12 1404.67 1997.83 1406.09 1994.77 C 1409.23 1993.74 1410.47 1993.4 1413.7 1992.82 C 1410.91 1994.32 1409.98 1995.17 1407.47 1997.12 C 1402.7 1997.16 1397.92 1997.16 1393.15 1997.12 C 1381.74 1987.16 1380.72 1994.23 1368.22 1991.77 C 1370.59 1990.63 1374.32 1990.97 1377.1 1990.9 C 1380.22 1990.95 1382.09 1991.39 1382.83 1988 L 1383.07 1986.99 z"/>
<path transform="translate(0,0)" fill="rgb(237,234,227)" fill-opacity="0.72549" d="M 1388.7 1986.83 C 1391.18 1986.75 1393.47 1986.67 1395.96 1986.72 C 1406.07 1990.96 1400.57 1994.28 1406.09 1994.77 C 1404.67 1997.83 1394.83 1997.12 1395.14 1992.37 C 1395.33 1989.26 1391.38 1988.56 1388.7 1986.83 z"/>
<path transform="translate(0,0)" fill="rgb(237,234,227)" fill-opacity="0.494118" d="M 1405.54 1973.64 C 1405.28 1975.55 1405.04 1978.45 1404.49 1980.23 C 1404.03 1979.92 1403.9 1979.39 1403.41 1979.09 C 1400.36 1979.26 1398.76 1984.31 1395.96 1986.72 C 1395.69 1983.25 1395.61 1982.35 1395.91 1978.84 C 1399.97 1975.94 1400.91 1975.84 1405.54 1973.64 z"/>
<path transform="translate(0,0)" fill="rgb(244,244,243)" fill-opacity="0.462745" d="M 1439.87 1986.92 C 1443.38 1986.68 1445.77 1986.83 1449.24 1986.97 C 1447.44 1992.64 1440 1991.06 1434.8 1990.97 C 1438.87 1990.02 1443.61 1990.72 1439.87 1986.92 z"/>
<path transform="translate(0,0)" fill="rgb(244,244,243)" fill-opacity="0.431373" d="M 1376.11 1986.96 C 1378.5 1986.89 1380.68 1986.93 1383.07 1986.99 L 1382.83 1988 C 1382.09 1991.39 1380.22 1990.95 1377.1 1990.9 C 1377.67 1988.65 1377.6 1988.76 1376.11 1986.96 z"/>
</svg>