<svg version="1.1" xmlns="http://www.w3.org/2000/svg" style="display: block;" viewBox="0 0 2048 2048" width="1024" height="1024" preserveAspectRatio="none" xmlns:c2pa="http://c2pa.org/manifest"><metadata><c2pa:manifest>AAAMZ2p1bWIAAAAeanVtZGMycGEAEQAQgAAAqgA4m3EDYzJwYQAAAAxBanVtYgAAAEdqdW1kYzJtYQARABCAAACqADibcQN1cm46YzJwYTozZjZmZDcyYy1mMGUxLTQ2OGEtOWQ3MS1kZmM0MmM1OTdiYjYAAAAB4mp1bWIAAAApanVtZGMyYXMAEQAQgAAAqgA4m3EDYzJwYS5hc3NlcnRpb25zAAAAAO1qdW1iAAAAQWp1bWRjYm9yABEAEIAAAKoAOJtxE2MycGEuYWN0aW9ucy52MgAAAAAYYzJzaFwp1sgrJQP3BQukzMhdu9kAAACkY2JvcqFnYWN0aW9uc4GjZmFjdGlvbmxjMnBhLmNyZWF0ZWRxZGlnaXRhbFNvdXJjZVR5cGV4Rmh0dHA6Ly9jdi5pcHRjLm9yZy9uZXdzY29kZXMvZGlnaXRhbHNvdXJjZXR5cGUvdHJhaW5lZEFsZ29yaXRobWljTWVkaWFrZGVzY3JpcHRpb252Q3JlYXRlZCBieSBSZWNyYWZ0IEFJLgAAAMRqdW1iAAAAQGp1bWRjYm9yABEAEIAAAKoAOJtxE2MycGEuaGFzaC5kYXRhAAAAABhjMnNoE2h9ONPq9bLuAycL6ViVBQAAAHxjYm9ypWpleGNsdXNpb25zgaJlc3RhcnQY22ZsZW5ndGgZEIxkbmFtZW5qdW1iZiBtYW5pZmVzdGNhbGdmc2hhMjU2ZGhhc2hYIOQGdutg7aWIEY8ycQsxvFkNFzQQysjmkGz/b7fj8jrlY3BhZEkAAAAAAAAAAAAAAAI0anVtYgAAACdqdW1kYzJjbAARABCAAACqADibcQNjMnBhLmNsYWltLnYyAAAAAgVjYm9ypmppbnN0YW5jZUlEeCx4bXA6aWlkOmY0NTNiZWViLWU5ZjQtNGM5OC1hYmIxLTQ1YjY1OWZmNDI2MXRjbGFpbV9nZW5lcmF0b3JfaW5mb6NkbmFtZWpyZWNyYWZ0LmFpZ3ZlcnNpb254KDgxY2U4MmUyYzVjM2NiZmJlOGM2ZmJlMTc5ZDVmOGQ5MWM0MDljZTF3b3JnLmNvbnRlbnRhdXRoLmMycGFfcnNmMC45MC43aXNpZ25hdHVyZXhNc2VsZiNqdW1iZj0vYzJwYS91cm46YzJwYTozZjZmZDcyYy1mMGUxLTQ2OGEtOWQ3MS1kZmM0MmM1OTdiYjYvYzJwYS5zaWduYXR1cmVyY3JlYXRlZF9hc3NlcnRpb25zgqJjdXJseCpzZWxmI2p1bWJmPWMycGEuYXNzZXJ0aW9ucy9jMnBhLmFjdGlvbnMudjJkaGFzaFgg/ox0QPxR4jgqSRe1iDGczonfMfqofuJRXbvTDite6xCiY3VybHgpc2VsZiNqdW1iZj1jMnBhLmFzc2VydGlvbnMvYzJwYS5oYXNoLmRhdGFkaGFzaFggxkflnha1QEBZcd3wINlVStbI3zVi96MvZVYo9nMh5+BoZGM6dGl0bGV4GlJlY3JhZnQgQUkgR2VuZXJhdGVkIEltYWdlY2FsZ2ZzaGEyNTYAAAfcanVtYgAAAChqdW1kYzJjcwARABCAAACqADibcQNjMnBhLnNpZ25hdHVyZQAAAAesY2JvctKEWQOwogEmGCGCWQHnMIIB4zCCAYmgAwIBAgIJALfeWmNDUW56MAoGCCqGSM49BAMCMEAxHzAdBgNVBAMMFlJlY3JhZnQgU3RhZ2luZyBEZXYgQ0ExEDAOBgNVBAoMB1JlY3JhZnQxCzAJBgNVBAYTAlVTMB4XDTI2MDYxMjE5NDM1MFoXDTI3MDYxMjE5NDM1MFowNzELMAkGA1UEBhMCVVMxEzARBgNVBAoTClJlY3JhZnQgQUkxEzARBgNVBAMTCnJlY3JhZnQuYWkwWTATBgcqhkjOPQIBBggqhkjOPQMBBwNCAARKaTVbACsg/DeG3LeOxYdID/VA6EFG73E6Oknb+KIiCFJygRUz4ueN2z/t2qYb6CIUvS8RvgOiiClfoqsYtw81o3UwczAMBgNVHRMBAf8EAjAAMA4GA1UdDwEB/wQEAwIGwDATBgNVHSUEDDAKBggrBgEFBQcDBDAdBgNVHQ4EFgQULzHpBen96SL1y4IPHa8MkMshXf0wHwYDVR0jBBgwFoAUAgsqOBrKqpdK//m/kxZo7ZR4ebcwCgYIKoZIzj0EAwIDSAAwRQIgU8hKW0aXvvk8SQgVFNkax69Ym9ae8GsT2RZTQw+B51ACIQC0D4BkEoRD4N0r2ZRkNy0HZaW3WICy/QZGN95ilF4yzFkBvTCCAbkwggFfoAMCAQICCQCc+Wg7T6ATbzAKBggqhkjOPQQDAjBAMR8wHQYDVQQDDBZSZWNyYWZ0IFN0YWdpbmcgRGV2IENBMRAwDgYDVQQKDAdSZWNyYWZ0MQswCQYDVQQGEwJVUzAeFw0yNjA2MTIxOTQwMTZaFw0yODA2MTExOTQwMTZaMEAxHzAdBgNVBAMMFlJlY3JhZnQgU3RhZ2luZyBEZXYgQ0ExEDAOBgNVBAoMB1JlY3JhZnQxCzAJBgNVBAYTAlVTMFkwEwYHKoZIzj0CAQYIKoZIzj0DAQcDQgAEQ9IQBlcVbKaKPYrQSfOhL/00s7xUDC7RinIuLO/I1k99y9yh6oWF9kPxaP+tx1v1PeOL3yrVquJ730H0ZGiDyqNCMEAwDwYDVR0TAQH/BAUwAwEB/zAOBgNVHQ8BAf8EBAMCAYYwHQYDVR0OBBYEFAILKjgayqqXSv/5v5MWaO2UeHm3MAoGCCqGSM49BAMCA0gAMEUCIFQwNImLlYDeQhjgF+ZiqTbgcuzSqmOJw3Q2lQ/hu83FAiEA9O8cLm/xfoVLqB4jtdbuHzi3WL+p2RN+DRGkwpYswVuhY3BhZFkDpAAAAAAAAAAAAAAAAAAAAAAAAAAAAAAAAAAAAAAAAAAAAAAAAAAAAAAAAAAAAAAAAAAAAAAAAAAAAAAAAAAAAAAAAAAAAAAAAAAAAAAAAAAAAAAAAAAAAAAAAAAAAAAAAAAAAAAAAAAAAAAAAAAAAAAAAAAAAAAAAAAAAAAAAAAAAAAAAAAAAAAAAAAAAAAAAAAAAAAAAAAAAAAAAAAAAAAAAAAAAAAAAAAAAAAAAAAAAAAAAAAAAAAAAAAAAAAAAAAAAAAAAAAAAAAAAAAAAAAAAAAAAAAAAAAAAAAAAAAAAAAAAAAAAAAAAAAAAAAAAAAAAAAAAAAAAAAAAAAAAAAAAAAAAAAAAAAAAAAAAAAAAAAAAAAAAAAAAAAAAAAAAAAAAAAAAAAAAAAAAAAAAAAAAAAAAAAAAAAAAAAAAAAAAAAAAAAAAAAAAAAAAAAAAAAAAAAAAAAAAAAAAAAAAAAAAAAAAAAAAAAAAAAAAAAAAAAAAAAAAAAAAAAAAAAAAAAAAAAAAAAAAAAAAAAAAAAAAAAAAAAAAAAAAAAAAAAAAAAAAAAAAAAAAAAAAAAAAAAAAAAAAAAAAAAAAAAAAAAAAAAAAAAAAAAAAAAAAAAAAAAAAAAAAAAAAAAAAAAAAAAAAAAAAAAAAAAAAAAAAAAAAAAAAAAAAAAAAAAAAAAAAAAAAAAAAAAAAAAAAAAAAAAAAAAAAAAAAAAAAAAAAAAAAAAAAAAAAAAAAAAAAAAAAAAAAAAAAAAAAAAAAAAAAAAAAAAAAAAAAAAAAAAAAAAAAAAAAAAAAAAAAAAAAAAAAAAAAAAAAAAAAAAAAAAAAAAAAAAAAAAAAAAAAAAAAAAAAAAAAAAAAAAAAAAAAAAAAAAAAAAAAAAAAAAAAAAAAAAAAAAAAAAAAAAAAAAAAAAAAAAAAAAAAAAAAAAAAAAAAAAAAAAAAAAAAAAAAAAAAAAAAAAAAAAAAAAAAAAAAAAAAAAAAAAAAAAAAAAAAAAAAAAAAAAAAAAAAAAAAAAAAAAAAAAAAAAAAAAAAAAAAAAAAAAAAAAAAAAAAAAAAAAAAAAAAAAAAAAAAAAAAAAAAAAAAAAAAAAAAAAAAAAAAAAAAAAAAAAAAAAAAAAAAAAAAAAAAAAAAAAAAAAAAAAAAAAAAAAAAAAAAAAAAAAAAAAAAAAAAAAAAAAAAAAAAAAAAAAAAAAAAAAAAAAAAAAAAAAAAAAAAAAAAAAAAAAAAAAAAAAA9lhAAnAfyDWYuA1hbrDTYQaWiz3v+q01qBoAvSRp2Kv2uqMLw0FEGfalCLda2UzRX3WMZfJcecwAZonbVt+5xpkFYw==</c2pa:manifest></metadata>
<defs>
	<linearGradient id="Gradient1" gradientUnits="userSpaceOnUse" x1="816.786" y1="1399.06" x2="857.153" y2="1382.59">
		<stop class="stop0" offset="0" stop-opacity="0.556863" stop-color="rgb(239,236,232)"/>
		<stop class="stop1" offset="1" stop-opacity="0.752941" stop-color="rgb(237,235,234)"/>
	</linearGradient>
	<linearGradient id="Gradient2" gradientUnits="userSpaceOnUse" x1="1247.4" y1="546.903" x2="1255.48" y2="547.277">
		<stop class="stop0" offset="0" stop-opacity="0" stop-color="rgb(235,223,215)"/>
		<stop class="stop1" offset="1" stop-opacity="0.0509804" stop-color="rgb(236,224,211)"/>
	</linearGradient>
</defs>
<path transform="translate(0,0)" fill="rgb(9,7,6)" d="M 998.722 477.189 C 965.745 439.46 947.254 401.388 943.505 351.02 C 937.952 276.41 994.352 234.342 1063.99 231.281 C 1098.6 229.759 1132.93 239.783 1158.9 263.229 C 1186.05 287.74 1192.61 333.286 1195.45 367.855 C 1197.55 399.798 1180.69 471.038 1157.94 496.317 C 1143.97 511.069 1125.15 513.819 1105.94 512.109 C 1097.05 511.319 1084.31 505.318 1078.05 512.457 C 1076.13 517.185 1077.26 523.933 1077.64 529.329 C 1095.79 532.19 1137.11 532.384 1156.4 533.031 C 1184 533.956 1216.02 536.078 1243.13 535.801 C 1244.48 530.439 1245.96 525.434 1249.01 520.747 C 1254.95 511.65 1264.31 505.335 1274.97 503.235 C 1301.46 497.776 1325.01 509.743 1329.2 537.684 C 1338.79 538.473 1345.34 538.939 1354.93 538.778 C 1361.84 510.365 1366.29 492.467 1384.98 468.745 C 1410.42 435.918 1447.91 414.61 1489.14 409.554 C 1529.88 405.219 1570.67 417.306 1602.48 443.138 C 1635.79 469.815 1654 506.688 1658.57 548.725 C 1671.11 549.559 1692.09 549.143 1700.89 557.913 C 1704.81 561.866 1706.99 567.226 1706.93 572.796 C 1706.87 579.043 1704.27 584.997 1699.73 589.29 C 1690.17 598.327 1669.79 595.106 1656.23 594.852 C 1638.5 657.241 1595.18 701.642 1529.85 712.653 C 1490.36 719.105 1449.91 709.81 1417.2 686.763 C 1382.39 661.732 1362.49 624.989 1355.61 583.235 C 1346.43 582.908 1336.42 583.055 1327.17 583.008 C 1327.15 589.951 1327.35 609.827 1325.49 615.565 C 1318.02 638.617 1308.16 663.634 1299.67 686.359 C 1282.54 732.226 1265.07 777.602 1248.48 823.642 C 1243.21 838.435 1234.82 854.375 1218.44 859.637 C 1164.25 877.039 1147.6 844.692 1131.77 804.956 C 1127.7 809.678 1128.02 811.22 1123.16 814.189 C 1120.27 820.031 1115.29 838.024 1113.24 844.953 L 1096.29 902.571 L 1064.16 1011.55 C 1058.96 1029.44 1052.62 1049.75 1048.33 1067.61 L 1179.72 1234.13 L 1227.76 1294.98 C 1235.83 1305.27 1246.94 1318.63 1253.36 1329.8 C 1258.27 1338.35 1258.5 1351.56 1257.29 1361.36 C 1254.28 1385.79 1249.73 1410.23 1246.23 1434.6 L 1219.54 1616.94 C 1217.48 1630.75 1203.32 1715.21 1205.37 1722.24 C 1212.14 1726.62 1246.66 1724.49 1257.48 1725.35 C 1317.46 1730.13 1317.63 1815.29 1258.45 1819.95 C 1248.43 1820.74 1237.77 1820.37 1227.58 1820.3 L 1173.2 1820 C 1148.72 1820.02 1107.07 1825.7 1087.25 1811.39 C 1057.41 1789.85 1067.14 1755.35 1070.76 1724.78 C 1081.5 1627.06 1095.04 1529.39 1105.34 1431.65 C 1106.18 1429.71 1105.98 1428.22 1106.02 1426.06 C 1107.65 1418.77 1109.69 1396.71 1110.19 1389.01 C 1101.76 1378.93 1092.58 1368.94 1083.85 1359.08 C 1078.28 1352.79 1071.19 1343.46 1065.31 1337.83 C 1060.8 1331.43 1053.85 1324.8 1048.85 1318.6 C 1044.77 1312.92 1029.26 1295.74 1023.94 1290.28 C 1017.82 1284.3 1009.09 1271.75 1002.54 1267.75 C 990.573 1260.43 994.707 1259.26 988.806 1250.02 C 982.474 1251.22 983.108 1251.01 984.221 1258.5 C 985.088 1264.34 986.228 1271.42 989.009 1276.55 C 991.631 1281.72 991.71 1288.6 990.666 1294.14 C 991.159 1295.35 991.571 1296.53 992.015 1297.76 C 992.842 1301.46 994.973 1306.19 996.09 1310.04 L 1007.72 1349.57 C 1010.31 1358.71 1013.31 1366.32 1015.53 1375.88 C 1021.16 1397.76 1011.62 1417.94 1004.34 1438.18 L 985.34 1490.9 C 976.762 1514.66 904.532 1714.59 905.927 1720.89 C 911.744 1724.15 917.365 1723.36 923.896 1723.33 C 935.76 1723.22 947.337 1723.08 959.177 1723.92 C 993.828 1726.39 1014.13 1766.09 996.754 1795.9 C 981.057 1822.82 946.982 1818.9 920.364 1818.81 L 869.454 1818.72 C 847.191 1818.76 824.071 1819.52 801.988 1818.3 C 770.212 1816.54 749.789 1785.39 757.542 1755.51 C 763.283 1734.09 770.626 1712.76 777.371 1691.57 L 811.833 1581.82 C 818.753 1559.94 827.925 1533.6 833.414 1511.9 C 833.642 1511.44 833.87 1510.97 834.099 1510.51 C 838.908 1498.13 844.436 1478.91 848.535 1465.72 L 846.382 1463.81 C 843.945 1452.67 862.481 1415.78 862.561 1400.86 C 862.637 1386.56 843.502 1348.65 848.494 1338.92 C 846.424 1330.15 842.52 1318.95 839.839 1310.06 L 824.579 1258.14 C 821.428 1246.81 818.104 1235.52 814.607 1224.29 C 813.31 1218.79 810.552 1210.63 808.849 1205.02 L 802.647 1184.9 C 802.255 1183.87 801.884 1182.86 801.455 1181.84 L 800.319 1178.66 C 798.437 1168.67 794.582 1155.31 790.93 1145.93 C 785.976 1133.89 772.982 1126.2 766.701 1115.28 C 745.601 1078.58 752.024 1029.66 773.591 994.596 C 778.207 987.093 785.032 975.661 787.656 967.551 C 798.753 933.258 808.724 898.553 819.479 864.147 C 829.008 832.108 841.693 798.642 849.146 766.476 C 815.142 783.81 740.711 856.43 710.536 860.968 C 697.86 862.875 684.879 858.832 674.774 851.141 C 662.507 841.804 653.856 826.012 655.32 810.327 C 656.751 794.998 667.883 778.625 674.272 764.728 L 734.173 634.592 C 741.796 617.983 751.509 600.392 757.44 583.221 C 759.334 577.739 757.962 569.687 757.227 563.807 C 745.008 562.445 722.145 562.573 708.77 562.054 C 693.406 620.179 644.939 665.583 585.435 675.553 C 545.009 682.468 503.499 672.845 470.239 648.845 C 435.055 623.637 415.048 588.353 408.037 546.113 C 393.861 544.33 354.763 546.386 349.439 538.503 C 316.324 489.474 394.852 500.716 407.469 501.185 C 412.55 475.492 418.986 457.434 434.905 436.024 C 486.82 366.204 583.847 350.638 653.524 403.981 C 691.611 433.14 707.815 469.214 713.618 516.846 C 727.111 517.484 739.54 517.988 753.038 517.97 C 763.634 487.306 791.929 476.794 821.895 491.609 C 833.891 497.539 838.618 508.472 841.95 520.825 C 860.324 522.623 881.945 523.089 900.595 523.831 L 985.322 527.005 C 987.789 513.809 995.15 492.808 998.722 477.189 z M 1133.22 590.504 C 1142.06 599.386 1154.71 604.768 1163.72 615.585 C 1182.12 635.873 1179.21 658.491 1179.07 683.521 C 1179.04 690.023 1190.22 716.229 1197.04 718.605 C 1202.01 715.63 1208.4 696.028 1211.07 689.885 L 1237.71 629.764 C 1247.75 606.525 1250.98 606.386 1246.51 580.527 C 1230.54 579.419 1214.28 579.176 1198.23 578.577 C 1174.19 577.681 1148.5 575.836 1124.5 576.315 C 1117.28 584.753 1127.78 578.993 1133.22 590.504 z M 1324.71 584.023 C 1326.04 551.772 1335.22 509.841 1291.64 505.163 C 1280.84 504.003 1274.61 506.05 1264.89 509.742 C 1260.06 513.114 1258.15 514.123 1254.19 518.728 C 1252.36 521.395 1250.68 523.797 1249.19 526.667 L 1248.46 528.259 C 1244.08 537.239 1248.03 558.695 1249.06 568.849 C 1249.01 571.633 1248.78 574.055 1249.59 576.725 C 1250.59 590.954 1253.13 597.721 1248.49 611.395 C 1248.71 613.341 1248.98 615.283 1249.29 617.217 L 1248.69 619.094 C 1247.72 622.289 1247.63 622.795 1246.24 625.99 C 1243.89 629.011 1243.36 634.281 1241.95 635.983 C 1237.99 640.767 1241.14 651.825 1247.74 648.98 C 1248.32 648.728 1247.29 646.779 1246.08 646.501 C 1242.1 647.081 1241.85 640.711 1242.97 637.951 C 1246.04 630.378 1244.49 635.926 1249.47 635.469 C 1255.16 634.948 1251.06 636.969 1254.4 639.255 C 1256.72 639.482 1256 637.385 1256.73 636.433 C 1260.66 631.309 1259.33 627.932 1259.65 624.635 C 1260.56 615.381 1252.17 613.708 1255.61 609.655 C 1254.76 607.892 1265.08 625.8 1263.07 623.737 C 1266.02 624.375 1264.49 619.443 1265.2 618.548 L 1265.4 618.509 C 1271.09 631.696 1278.83 602.771 1288.05 627.979 C 1289.93 633.134 1294.11 634.555 1299.59 634.298 C 1301.49 634.702 1302 633.467 1302.86 633.665 C 1305.6 639.283 1291.99 631.376 1294.37 642.814 L 1294.62 643.054 C 1298.78 641.938 1306.02 639.351 1309.54 636.95 C 1309.58 636.031 1309.66 633.456 1309.46 632.587 C 1307.07 622.097 1316.44 626.101 1318.02 618.925 C 1318.31 613.805 1318.95 609.159 1319.2 604.087 C 1319.75 596.203 1319.14 589.328 1324.71 584.023 z M 757.46 514.235 C 757.634 525.565 759.441 538.024 760.916 549.46 C 761.126 551.09 761.397 559.284 763.957 557.99 C 767.014 556.445 775.3 543.028 770.671 539.848 C 769.697 539.911 769.886 539.778 769.228 540.408 C 768.944 541.515 763.813 563.56 762.954 553.839 C 762.636 550.245 761.192 533.539 763.962 533.178 C 771.293 532.224 771.195 533.904 771.578 524.208 C 773.504 523.22 776.579 521.778 776.959 519.526 C 778.161 512.406 779.981 514.828 784.344 513.478 C 785.775 511.841 784.334 506.989 785.381 505.545 C 789.57 499.768 786.088 498.57 786.158 495.613 L 786.295 495.5 C 787.358 495.32 795.152 502.106 801.013 499.516 C 800.323 499.821 811.289 497.243 810 497.33 C 810.308 498.666 812.258 501.651 811.45 502.741 C 807.297 508.341 817.851 507.705 820.427 506.92 C 821.737 505.39 823.06 503.974 824.542 502.607 C 823.684 500.557 823.797 498.183 823.63 496.002 C 823.104 495.624 822.578 495.246 822.052 494.867 C 817.114 492.138 815.01 491.464 809.931 489.311 C 799.203 487.973 795.23 487.38 784.29 489.424 L 783.46 489.782 C 778.618 491.83 777.21 491.966 772.65 495.042 C 766.523 498.507 762.339 503.575 759.16 509.7 C 758.613 511.219 758.046 512.731 757.46 514.235 z M 905.059 568.831 C 899.275 568.109 892.497 568.165 886.58 568.093 L 883.769 570.408 C 885.806 574.719 878.221 575.061 876.943 578.568 C 876.492 579.808 878.921 581.903 880 581.932 C 884.537 582.054 888.449 578.019 892.008 575.552 C 896.278 575.37 925.147 575.68 926.937 573.789 C 926.91 573.677 926.882 573.565 926.854 573.453 C 923.508 573.412 908.319 571.551 905.605 572.324 C 899.314 574.116 901.533 572.641 899.483 570.524 C 907.56 570.214 910.59 569.56 917.688 571.814 C 918.743 572.15 930.602 570.224 933.206 569.901 C 926.116 568.831 912.651 568.894 905.059 568.831 z M 1068.38 519.059 C 1060.55 522.993 1058.77 522.633 1066.08 526.798 C 1072.67 526.139 1074.52 522.989 1068.38 519.059 z M 999.033 527.283 C 999.793 519.05 998.868 518.477 991.879 519.324 L 990.309 519.504 C 987.914 529.067 988.855 526.57 999.033 527.283 z M 1209.13 703.196 C 1207.44 705.89 1206.5 707.548 1205.44 710.639 C 1204.46 712.652 1204.04 713.913 1203.19 715.878 C 1201.43 719.441 1200.16 722.146 1198.75 725.9 C 1197.62 728.204 1197.58 728.181 1195.67 729.966 C 1198.01 731.176 1197.22 734.557 1201.99 734.166 C 1208.23 733.656 1209.75 729.019 1213.41 724.651 C 1215.25 721.934 1218.06 718.355 1219.44 715.562 C 1221.76 710.901 1215.32 705.55 1215.48 703.204 C 1215.75 702.817 1219.13 700.799 1219.67 700.419 C 1220.17 697.762 1218.67 697.666 1220.62 694.289 L 1220.28 694.47 C 1220.45 694.43 1220.63 694.391 1220.81 694.351 C 1221.35 695.617 1220.68 697.123 1221.69 698.271 C 1221.99 698.797 1222.3 699.324 1222.6 699.85 C 1222.84 700.337 1223.08 700.824 1223.32 701.311 C 1224.27 702.662 1226.9 700.299 1227.32 699.301 C 1228.16 697.566 1225.61 694.366 1226.07 692.934 C 1226.77 690.779 1223.74 686.368 1221.97 686.295 C 1219.18 686.18 1216.03 687.616 1216.12 690.978 C 1216.18 693.467 1215.69 698.38 1214.27 700.592 C 1213.24 702.172 1211.04 702.183 1209.39 702.363 C 1209.19 702.762 1209.28 702.504 1209.13 703.196 z M 838.554 588.733 C 842.14 593.192 842.465 591.485 848.311 592.175 C 850.749 590.06 880.39 571.334 873.221 568.48 C 867.113 566.048 849.19 567.262 841.941 568.136 C 840.954 575.439 840.555 581.514 838.554 588.733 z"/>
<path transform="translate(0,0)" fill="rgb(237,234,227)" d="M 848.535 1465.72 L 846.382 1463.81 C 843.945 1452.67 862.481 1415.78 862.561 1400.86 C 862.637 1386.56 843.502 1348.65 848.494 1338.92 C 854.838 1360.22 861.185 1382.6 868.007 1403.68 L 848.535 1465.72 z"/>
<path transform="translate(0,0)" fill="rgb(237,234,227)" d="M 970.858 1228.86 C 974.395 1232.89 986.248 1246.02 988.806 1250.02 C 982.474 1251.22 983.108 1251.01 984.221 1258.5 C 985.088 1264.34 986.228 1271.42 989.009 1276.55 C 991.631 1281.72 991.71 1288.6 990.666 1294.14 C 986.778 1280.91 982.174 1267.73 978.4 1254.39 L 976.358 1246.99 L 975.837 1245.01 C 974.309 1239.38 972.718 1234.37 970.858 1228.86 z"/>
<path transform="translate(0,0)" fill="rgb(237,234,227)" d="M 1123.16 814.189 C 1124.96 807.182 1127.3 789.207 1131.77 804.956 C 1127.7 809.678 1128.02 811.22 1123.16 814.189 z"/>
<path transform="translate(0,0)" fill="rgb(237,234,227)" d="M 757.46 514.235 C 757.634 525.565 759.441 538.024 760.916 549.46 C 761.126 551.09 761.397 559.284 763.957 557.99 C 767.014 556.445 775.3 543.028 770.671 539.848 C 769.697 539.911 769.886 539.778 769.228 540.408 C 768.944 541.515 763.813 563.56 762.954 553.839 C 762.636 550.245 761.192 533.539 763.962 533.178 C 771.293 532.224 771.195 533.904 771.578 524.208 C 773.504 523.22 776.579 521.778 776.959 519.526 C 778.161 512.406 779.981 514.828 784.344 513.478 C 785.775 511.841 784.334 506.989 785.381 505.545 C 789.57 499.768 786.088 498.57 786.158 495.613 L 786.295 495.5 C 787.358 495.32 795.152 502.106 801.013 499.516 C 800.323 499.821 811.289 497.243 810 497.33 C 810.308 498.666 812.258 501.651 811.45 502.741 C 807.297 508.341 817.851 507.705 820.427 506.92 C 821.737 505.39 823.06 503.974 824.542 502.607 C 823.684 500.557 823.797 498.183 823.63 496.002 C 832.344 502.975 836.066 508.331 838.548 519.327 C 842.275 579.239 834.802 604.292 807.182 656.607 C 805.169 660.419 792.412 683.697 793.734 686.803 C 800.296 683.243 828.084 613.079 835.031 606.733 C 843.82 598.704 873.572 575.486 883.769 570.408 C 885.806 574.719 878.221 575.061 876.943 578.568 C 876.492 579.808 878.921 581.903 880 581.932 C 884.537 582.054 888.449 578.019 892.008 575.552 C 896.278 575.37 925.147 575.68 926.937 573.789 C 926.91 573.677 926.882 573.565 926.854 573.453 C 923.508 573.412 908.319 571.551 905.605 572.324 C 899.314 574.116 901.533 572.641 899.483 570.524 C 907.56 570.214 910.59 569.56 917.688 571.814 C 918.743 572.15 930.602 570.224 933.206 569.901 C 989.644 570.258 1048.8 574.114 1105.6 575.478 C 1150.95 606.44 1185.6 621.55 1174.74 679.542 C 1173.22 687.655 1191.27 719.754 1195.67 729.966 C 1198.01 731.176 1197.22 734.557 1201.99 734.166 C 1208.23 733.656 1209.75 729.019 1213.41 724.651 C 1215.25 721.934 1218.06 718.355 1219.44 715.562 C 1221.76 710.901 1215.32 705.55 1215.48 703.204 C 1215.75 702.817 1219.13 700.799 1219.67 700.419 C 1220.17 697.762 1218.67 697.666 1220.62 694.289 L 1220.28 694.47 C 1220.45 694.43 1220.63 694.391 1220.81 694.351 C 1221.35 695.617 1220.68 697.123 1221.69 698.271 C 1221.99 698.797 1222.3 699.324 1222.6 699.85 C 1222.84 700.337 1223.08 700.824 1223.32 701.311 C 1224.27 702.662 1226.9 700.299 1227.32 699.301 C 1228.16 697.566 1225.61 694.366 1226.07 692.934 C 1226.77 690.779 1223.74 686.368 1221.97 686.295 C 1219.18 686.18 1216.03 687.616 1216.12 690.978 C 1216.18 693.467 1215.69 698.38 1214.27 700.592 C 1213.24 702.172 1211.04 702.183 1209.39 702.363 C 1220.38 674.406 1236.23 639.204 1248.49 611.395 C 1248.71 613.341 1248.98 615.283 1249.29 617.217 L 1248.69 619.094 C 1247.72 622.289 1247.63 622.795 1246.24 625.99 C 1243.89 629.011 1243.36 634.281 1241.95 635.983 C 1237.99 640.767 1241.14 651.825 1247.74 648.98 C 1248.32 648.728 1247.29 646.779 1246.08 646.501 C 1242.1 647.081 1241.85 640.711 1242.97 637.951 C 1246.04 630.378 1244.49 635.926 1249.47 635.469 C 1255.16 634.948 1251.06 636.969 1254.4 639.255 C 1256.72 639.482 1256 637.385 1256.73 636.433 C 1260.66 631.309 1259.33 627.932 1259.65 624.635 C 1260.56 615.381 1252.17 613.708 1255.61 609.655 C 1254.76 607.892 1265.08 625.8 1263.07 623.737 C 1266.02 624.375 1264.49 619.443 1265.2 618.548 L 1265.4 618.509 C 1271.09 631.696 1278.83 602.771 1288.05 627.979 C 1289.93 633.134 1294.11 634.555 1299.59 634.298 C 1301.49 634.702 1302 633.467 1302.86 633.665 C 1305.6 639.283 1291.99 631.376 1294.37 642.814 L 1294.62 643.054 C 1298.78 641.938 1306.02 639.351 1309.54 636.95 C 1309.58 636.031 1309.66 633.456 1309.46 632.587 C 1307.07 622.097 1316.44 626.101 1318.02 618.925 C 1318.31 613.805 1318.95 609.159 1319.2 604.087 C 1319.75 596.203 1319.14 589.328 1324.71 584.023 C 1323.89 607.972 1323.52 618.463 1313.69 641.245 C 1311.83 645.549 1309.45 652.925 1307.35 656.848 C 1291.43 704.415 1270.98 751.26 1254.45 798.698 C 1252.53 804.197 1250.17 809.79 1248.43 815.304 C 1246.95 819.291 1245.43 823.265 1243.88 827.225 C 1238.84 840.023 1230.04 853.205 1216.63 857.355 C 1166.59 872.829 1149.62 843.101 1135.37 806.048 C 1132.55 799.042 1130.73 793.902 1128.49 786.684 C 1117.73 817.92 1108.13 851.137 1099.27 883.004 C 1082.16 944.567 1060.93 1006.2 1044.94 1067.94 L 1183.42 1243.34 L 1221.35 1291.37 C 1232.35 1305.32 1245.93 1320.95 1253.41 1336.86 C 1255.78 1341.9 1254.84 1357.63 1254.09 1363.25 C 1249.67 1396.32 1244.49 1429.51 1239.58 1462.51 L 1213.62 1637.47 C 1209.42 1665.62 1203.29 1700.02 1200.46 1727.91 C 1209.23 1727.91 1254.38 1727.31 1261.27 1728.61 C 1272.68 1729.95 1283.08 1735.81 1290.14 1744.88 C 1299.34 1756.5 1301.35 1769.21 1298.83 1783.46 C 1295.52 1806.27 1272.15 1818.37 1250.82 1818.01 C 1204.88 1817.25 1158.79 1818.67 1112.9 1817.63 C 1101.7 1817.38 1086.02 1809.71 1079.57 1800.44 C 1062.53 1779.68 1069.71 1753.95 1072.94 1728.47 C 1075.31 1709.9 1077.53 1691.3 1079.58 1672.69 L 1113.14 1388.85 C 1103.1 1375.81 1090.57 1363.17 1079.96 1350.38 C 1042.28 1304.94 999.989 1261.18 963.311 1215.03 C 974.813 1248.85 984.528 1283.57 994.934 1317.75 C 1000.99 1337.66 1014.02 1371.12 1014.86 1390.65 C 1015.54 1406.47 983.404 1488.44 976.042 1509.16 C 962.334 1548.6 948.419 1587.96 934.297 1627.25 C 922.799 1659.22 909.565 1694.16 899.529 1726.36 C 914.465 1726.2 954.121 1724.73 966.83 1728 C 978.413 1730.99 988.3 1738.52 994.252 1748.9 C 1000.62 1759.76 1001.98 1771.6 998.705 1783.73 C 995.729 1795.07 988.129 1804.65 977.758 1810.12 C 971.997 1813.2 963.049 1815.55 956.396 1815.65 C 906.475 1816.42 856.285 1816.24 806.351 1815.8 C 787.482 1815.63 771.741 1806.64 763.145 1789.46 C 752.26 1767.7 763.285 1744.64 770.094 1723.21 L 792.705 1651.98 L 847.312 1478.92 C 855.282 1453.98 862.553 1429.03 871.119 1404.27 C 851.264 1343.9 832.474 1274.95 814.185 1213.48 L 799.863 1165.28 C 798.726 1161.5 793.604 1142.95 791.946 1140.6 C 784.76 1130.37 774.917 1124.45 768.217 1112.03 C 749.234 1076.85 754.704 1034.35 773.426 1000.25 C 779.445 989.282 786.675 978.619 790.795 966.771 C 800.254 936.532 809.475 906.181 818.687 875.866 C 830.853 835.832 844.576 796.007 856.048 755.793 C 819.385 782.602 783.745 811.82 746.745 838.366 C 730.653 849.911 718.275 861.568 696.493 857.77 C 673.62 853.781 655.411 832.327 658.296 808.844 C 660.427 796.573 670.495 779.368 675.894 767.537 L 736.268 636.635 C 742.229 623.646 755.408 598.186 759.574 585.795 C 765.194 569.079 753.154 534.138 757.46 514.235 z"/>
<path transform="translate(0,0)" fill="rgb(201,162,39)" d="M 409.399 503.914 C 415.952 462.023 436.066 429.441 470.34 404.273 C 503 379.969 544.172 370.065 584.312 376.856 C 624.034 383.083 659.599 404.98 683.042 437.645 C 699.983 461.676 709.745 490.027 711.19 519.394 C 725.367 520.476 739.577 520.588 753.793 520.947 C 754.306 534.605 756.228 547.522 757.216 560.972 L 738.428 560.841 C 731.065 561.491 726.645 562.079 719.662 560.098 L 706.506 559.105 C 701.974 591.145 675.139 626.129 649.613 645.242 C 617.732 669.315 577.564 679.677 538.016 674.028 C 498.134 667.926 462.255 646.373 438.136 614.03 C 421.227 591.197 414.456 571.059 409.609 543.432 C 387.439 542.81 323.932 548.13 350.586 507.159 C 355.518 499.579 399.566 503.428 409.399 503.914 z"/>
<path transform="translate(0,0)" fill="rgb(68,44,11)" d="M 719.662 560.098 C 725.872 559.968 732.256 560.101 738.428 560.841 C 731.065 561.491 726.645 562.079 719.662 560.098 z"/>
<path transform="translate(0,0)" fill="rgb(201,162,39)" d="M 1497.71 411.417 C 1531.81 407.564 1575.38 423.194 1601.17 445.194 C 1637.07 475.81 1651.51 506.469 1656.32 551.811 C 1673.24 552.474 1723.92 551.261 1697.11 588.426 C 1691.74 595.864 1663.87 592.504 1653.97 591.88 C 1642.74 652.466 1593.66 696.381 1534.75 709.435 C 1530.71 710.132 1526.65 710.736 1522.58 711.246 C 1483.76 715.96 1444.66 705.093 1413.84 681.028 C 1382.59 656.5 1362.43 620.506 1357.84 581.044 C 1347.24 580.214 1337.97 580.138 1327.38 580.057 C 1327.59 566.806 1328.12 553.563 1328.96 540.337 C 1338.06 541.123 1347.99 541.115 1357.17 541.293 C 1362.47 512.529 1369.69 489.86 1388.86 467.167 C 1418.13 432.514 1453.12 415.56 1497.71 411.417 z"/>
<path transform="translate(0,0)" fill="rgb(237,234,227)" d="M 1001.79 476.822 C 915.695 378.911 919.771 229.838 1081.79 234.475 C 1111.8 235.333 1144.25 250.086 1163.84 272.442 C 1186.16 300.135 1195.57 355.077 1191.86 389.455 C 1188.43 421.209 1175.18 477.832 1150.07 499.5 C 1130.54 516.348 1098.47 508.057 1075.21 503.763 C 1074.43 512.476 1073.76 521.198 1073.21 529.929 C 1056.47 529.193 1039.73 528.653 1022.97 528.311 C 1019.15 528.212 1001.72 527.94 999.033 527.283 C 999.793 519.05 998.868 518.477 991.879 519.324 L 990.309 519.504 C 994.327 505.329 998.153 491.1 1001.79 476.822 z M 1066.08 526.798 C 1072.67 526.139 1074.52 522.989 1068.38 519.059 C 1060.55 522.993 1058.77 522.633 1066.08 526.798 z"/>
<path transform="translate(0,0)" fill="rgb(234,222,211)" fill-opacity="0.231373" d="M 1068.38 519.059 C 1074.52 522.989 1072.67 526.139 1066.08 526.798 C 1058.77 522.633 1060.55 522.993 1068.38 519.059 z"/>
<path transform="translate(0,0)" fill="rgb(201,162,39)" d="M 841.673 524.352 C 905.264 526.335 968.844 528.666 1032.41 531.345 C 1102.16 533.81 1173.43 535.45 1242.99 538.555 C 1244.17 551.653 1245.51 564.736 1247.01 577.8 C 1214.45 575.539 1181.18 576.107 1148.52 574.338 C 1141.15 573.938 1133.57 573.884 1126.18 573.849 C 1119.92 574.289 1115.65 574.932 1109.82 573.119 C 1021.44 570.141 929.792 565.539 841.705 563.862 L 841.673 524.352 z"/>
<path transform="translate(0,0)" fill="rgb(68,44,11)" d="M 1109.82 573.119 C 1115.85 572.938 1120.2 572.993 1126.18 573.849 C 1119.92 574.289 1115.65 574.932 1109.82 573.119 z"/>
<path transform="translate(0,0)" fill="rgb(237,234,227)" fill-opacity="0.12549" d="M 1199.52 660.68 C 1201 664.58 1201.1 672.437 1199.54 676.371 L 1197.54 675.744 C 1198.96 668.925 1198.79 668.016 1197.5 661.263 L 1199.52 660.68 z"/>
<path transform="translate(0,0)" fill="rgb(237,234,227)" fill-opacity="0.266667" d="M 1197.5 661.263 C 1196.94 657.696 1196.88 655.151 1196.69 651.575 L 1197.86 650.71 L 1197.79 650.236 L 1197.1 650.014 L 1197.73 649.538 C 1199.2 650.198 1199.31 658.723 1199.52 660.68 L 1197.5 661.263 z"/>
<path transform="translate(0,0)" fill="rgb(237,234,227)" fill-opacity="0.266667" d="M 1197.54 675.744 L 1199.54 676.371 C 1199.2 679.638 1198.89 682.908 1198.6 686.18 C 1198.16 683.683 1197.7 681.191 1197.21 678.704 C 1197.32 677.717 1197.43 676.731 1197.54 675.744 z"/>
<path transform="translate(0,0)" fill="rgb(237,234,227)" fill-opacity="0.627451" d="M 1197.21 678.704 C 1197.7 681.191 1198.16 683.683 1198.6 686.18 C 1198.32 687.22 1198.31 688.777 1197.49 689.564 L 1197.36 689.526 C 1196.31 688.101 1197.07 680.581 1197.21 678.704 z"/>
<path transform="translate(0,0)" fill="rgb(234,222,211)" fill-opacity="0.109804" d="M 1264.89 509.742 C 1274.61 506.05 1280.84 504.003 1291.64 505.163 C 1335.22 509.841 1326.04 551.772 1324.71 584.023 C 1319.14 589.328 1319.75 596.203 1319.2 604.087 C 1318.7 605.2 1318.09 608.127 1317.43 608.5 C 1313.72 608.144 1312.12 610.186 1308.99 609.269 C 1305.17 607.803 1305.18 605.843 1303.16 602.476 C 1301.3 599.381 1294.86 582.524 1291.53 582.08 C 1288.23 581.641 1290.97 589.583 1290.81 590.349 C 1289.82 590.788 1289.07 590.184 1288.21 591.067 C 1288.07 592.598 1289.8 592.841 1289.67 594.337 C 1289.36 598.017 1286.26 596.54 1285.83 594.288 C 1285.65 593.327 1284.83 589.307 1285.13 588.737 C 1286.58 586.953 1284.38 585.555 1284.66 584.3 C 1286.14 577.75 1269.54 573.449 1265.59 576.214 C 1263.48 577.688 1263.88 579.082 1263.27 581.278 C 1262.58 583.7 1262.03 585.555 1262.38 588.317 C 1262.49 589.384 1261.69 592.824 1260.76 592.9 C 1260.4 592.507 1259.64 586.777 1259.87 586.001 C 1263.86 572.875 1252.73 575.106 1249.75 569.238 C 1250.24 568.828 1250.74 568.413 1251.23 567.993 C 1255.02 564.672 1259.7 563.221 1256.25 556.391 C 1252.23 548.418 1259.68 545.948 1259.84 535.406 C 1263.28 532.186 1260.79 532.226 1257.19 531.854 L 1259.11 531.69 C 1262.79 530.674 1264.08 530.188 1266.56 526.939 C 1269.32 526.985 1274.29 525.576 1269.65 523.787 L 1268.38 523.272 C 1269.89 521.811 1275.95 519.802 1275.8 516.559 C 1275.53 510.52 1269.43 511.962 1264.89 509.742 z"/>
<path transform="translate(0,0)" fill="rgb(234,222,211)" fill-opacity="0.482353" d="M 1249.06 568.849 L 1249.75 569.238 C 1252.73 575.106 1263.86 572.875 1259.87 586.001 C 1259.64 586.777 1260.4 592.507 1260.76 592.9 C 1261.69 592.824 1262.49 589.384 1262.38 588.317 C 1262.03 585.555 1262.58 583.7 1263.27 581.278 C 1263.88 579.082 1263.48 577.688 1265.59 576.214 C 1269.54 573.449 1286.14 577.75 1284.66 584.3 C 1284.38 585.555 1286.58 586.953 1285.13 588.737 C 1284.83 589.307 1285.65 593.327 1285.83 594.288 C 1286.26 596.54 1289.36 598.017 1289.67 594.337 C 1289.8 592.841 1288.07 592.598 1288.21 591.067 C 1289.07 590.184 1289.82 590.788 1290.81 590.349 C 1290.97 589.583 1288.23 581.641 1291.53 582.08 C 1294.86 582.524 1301.3 599.381 1303.16 602.476 C 1305.18 605.843 1305.17 607.803 1308.99 609.269 C 1312.12 610.186 1313.72 608.144 1317.43 608.5 C 1318.09 608.127 1318.7 605.2 1319.2 604.087 C 1318.95 609.159 1318.31 613.805 1318.02 618.925 C 1316.25 619.652 1300.9 618.293 1297.45 618.231 C 1291.52 612.321 1288.65 607.456 1281.1 602.91 C 1279.79 602.123 1276.32 595.569 1274.54 594.757 C 1262.26 589.13 1270.73 608.737 1261.24 611.526 L 1259.56 612.007 L 1256.99 609.343 C 1267.69 609.329 1266.31 597.684 1257.77 597.625 L 1255.89 597.577 C 1256.18 590.935 1254.66 583.755 1250.69 578.314 L 1249.59 576.725 C 1248.78 574.055 1249.01 571.633 1249.06 568.849 z"/>
<path transform="translate(0,0)" fill="rgb(234,222,211)" fill-opacity="0.894118" d="M 784.29 489.424 C 796.918 496.903 800.709 502.316 809.931 489.311 C 815.01 491.464 817.114 492.138 822.052 494.867 C 814.548 494.014 816.961 495.691 810 497.33 C 811.289 497.243 800.323 499.821 801.013 499.516 C 795.152 502.106 787.358 495.32 786.295 495.5 L 786.158 495.613 C 786.088 498.57 789.57 499.768 785.381 505.545 C 784.334 506.989 785.775 511.841 784.344 513.478 C 779.981 514.828 778.161 512.406 776.959 519.526 C 776.579 521.778 773.504 523.22 771.578 524.208 C 771.195 533.904 771.293 532.224 763.962 533.178 C 761.192 533.539 762.636 550.245 762.954 553.839 C 763.813 563.56 768.944 541.515 769.228 540.408 C 769.886 539.778 769.697 539.911 770.671 539.848 C 775.3 543.028 767.014 556.445 763.957 557.99 C 761.397 559.284 761.126 551.09 760.916 549.46 C 759.441 538.024 757.634 525.565 757.46 514.235 C 758.046 512.731 758.613 511.219 759.16 509.7 C 759.189 512.187 755.972 534.071 767.464 526.954 C 769.988 525.391 768.097 515.908 767.855 513.115 C 769.684 511.243 775.63 504.574 778.04 504.124 C 783.266 503.15 787.219 497.201 779.525 496.134 C 776.509 495.716 775.934 495.948 772.65 495.042 C 777.21 491.966 778.618 491.83 783.46 489.782 L 784.29 489.424 z"/>
<path transform="translate(0,0)" fill="rgb(234,222,211)" fill-opacity="0.635294" d="M 1259.56 612.007 L 1261.24 611.526 C 1270.73 608.737 1262.26 589.13 1274.54 594.757 C 1276.32 595.569 1279.79 602.123 1281.1 602.91 C 1288.65 607.456 1291.52 612.321 1297.45 618.231 C 1300.9 618.293 1316.25 619.652 1318.02 618.925 C 1316.44 626.101 1307.07 622.097 1309.46 632.587 C 1309.66 633.456 1309.58 636.031 1309.54 636.95 C 1306.02 639.351 1298.78 641.938 1294.62 643.054 L 1294.37 642.814 C 1291.99 631.376 1305.6 639.283 1302.86 633.665 C 1302 633.467 1301.49 634.702 1299.59 634.298 C 1296.12 627.992 1293.55 631.823 1290.15 622.455 C 1289.83 619.728 1283.97 612.024 1281 611.913 C 1273.93 611.65 1274.49 597.285 1269.23 600.624 C 1264.88 603.387 1271.13 618.039 1259.56 612.007 z"/>
<path transform="translate(0,0)" fill="rgb(234,222,211)" fill-opacity="0.698039" d="M 1209.39 702.363 C 1211.04 702.183 1213.24 702.172 1214.27 700.592 C 1215.69 698.38 1216.18 693.467 1216.12 690.978 C 1216.03 687.616 1219.18 686.18 1221.97 686.295 C 1223.74 686.368 1226.77 690.779 1226.07 692.934 C 1225.61 694.366 1228.16 697.566 1227.32 699.301 C 1226.9 700.299 1224.27 702.662 1223.32 701.311 C 1223.08 700.824 1222.84 700.337 1222.6 699.85 C 1222.3 699.324 1221.99 698.797 1221.69 698.271 C 1220.68 697.123 1221.35 695.617 1220.81 694.351 C 1220.63 694.391 1220.45 694.43 1220.28 694.47 L 1220.62 694.289 C 1218.67 697.666 1220.17 697.762 1219.67 700.419 C 1219.13 700.799 1215.75 702.817 1215.48 703.204 C 1215.32 705.55 1221.76 710.901 1219.44 715.562 C 1218.06 718.355 1215.25 721.934 1213.41 724.651 C 1209.75 729.019 1208.23 733.656 1201.99 734.166 C 1197.22 734.557 1198.01 731.176 1195.67 729.966 C 1197.58 728.181 1197.62 728.204 1198.75 725.9 C 1205.63 729.175 1204.31 719.731 1203.19 715.878 C 1204.04 713.913 1204.46 712.652 1205.44 710.639 C 1209.92 713.439 1207.69 712.488 1210.27 716.178 C 1216.98 715.301 1211.21 705.747 1209.13 703.196 C 1209.28 702.504 1209.19 702.762 1209.39 702.363 z"/>
<path transform="translate(0,0)" fill="rgb(234,222,211)" fill-opacity="0.627451" d="M 1249.59 576.725 L 1250.69 578.314 C 1254.66 583.755 1256.18 590.935 1255.89 597.577 C 1255.77 603.145 1255.3 604.095 1256.99 609.343 L 1255.61 609.655 C 1252.17 613.708 1260.56 615.381 1259.65 624.635 C 1259.33 627.932 1260.66 631.309 1256.73 636.433 C 1256 637.385 1256.72 639.482 1254.4 639.255 C 1251.06 636.969 1255.16 634.948 1249.47 635.469 C 1244.49 635.926 1246.04 630.378 1242.97 637.951 C 1241.85 640.711 1242.1 647.081 1246.08 646.501 C 1247.29 646.779 1248.32 648.728 1247.74 648.98 C 1241.14 651.825 1237.99 640.767 1241.95 635.983 C 1243.36 634.281 1243.89 629.011 1246.24 625.99 C 1246.98 627.548 1247.63 629.939 1249.07 631.013 C 1250.06 631.737 1251.3 632.023 1252.51 631.804 C 1256.19 631.105 1256.48 625.263 1255.67 622.486 C 1254.9 619.862 1251.41 618.545 1249.29 617.217 C 1248.98 615.283 1248.71 613.341 1248.49 611.395 C 1253.13 597.721 1250.59 590.954 1249.59 576.725 z"/>
<path transform="translate(0,0)" fill="rgb(234,222,211)" fill-opacity="0.682353" d="M 1259.56 612.007 C 1271.13 618.039 1264.88 603.387 1269.23 600.624 C 1274.49 597.285 1273.93 611.65 1281 611.913 C 1283.97 612.024 1289.83 619.728 1290.15 622.455 C 1293.55 631.823 1296.12 627.992 1299.59 634.298 C 1294.11 634.555 1289.93 633.134 1288.05 627.979 C 1278.83 602.771 1271.09 631.696 1265.4 618.509 L 1265.2 618.548 C 1264.49 619.443 1266.02 624.375 1263.07 623.737 C 1265.08 625.8 1254.76 607.892 1255.61 609.655 L 1256.99 609.343 L 1259.56 612.007 z"/>
<path transform="translate(0,0)" fill="rgb(234,222,211)" fill-opacity="0.239216" d="M 772.65 495.042 C 775.934 495.948 776.509 495.716 779.525 496.134 C 787.219 497.201 783.266 503.15 778.04 504.124 C 775.63 504.574 769.684 511.243 767.855 513.115 C 768.097 515.908 769.988 525.391 767.464 526.954 C 755.972 534.071 759.189 512.187 759.16 509.7 C 762.339 503.575 766.523 498.507 772.65 495.042 z"/>
<path transform="translate(0,0)" fill="url(#Gradient2)" d="M 1249.19 526.667 C 1249.58 527.979 1250.78 533.774 1250.98 534.172 C 1253.48 535.891 1252.4 531.508 1256.84 532.87 C 1257.83 533.868 1258.74 534.533 1259.84 535.406 C 1259.68 545.948 1252.23 548.418 1256.25 556.391 C 1259.7 563.221 1255.02 564.672 1251.23 567.993 C 1250.74 568.413 1250.24 568.828 1249.75 569.238 L 1249.06 568.849 C 1248.03 558.695 1244.08 537.239 1248.46 528.259 L 1249.19 526.667 z"/>
<path transform="translate(0,0)" fill="rgb(234,222,211)" fill-opacity="0.890196" d="M 905.059 568.831 C 912.651 568.894 926.116 568.831 933.206 569.901 C 930.602 570.224 918.743 572.15 917.688 571.814 C 910.59 569.56 907.56 570.214 899.483 570.524 C 901.533 572.641 899.314 574.116 905.605 572.324 C 908.319 571.551 923.508 573.412 926.854 573.453 C 926.882 573.565 926.91 573.677 926.937 573.789 C 925.147 575.68 896.278 575.37 892.008 575.552 C 888.449 578.019 884.537 582.054 880 581.932 C 878.921 581.903 876.492 579.808 876.943 578.568 C 878.221 575.061 885.806 574.719 883.769 570.408 L 886.58 568.093 C 888.653 570.554 894.633 577.935 897.064 570.621 C 897.754 568.548 903.221 568.999 905.059 568.831 z"/>
<path transform="translate(0,0)" fill="rgb(234,222,211)" fill-opacity="0.580392" d="M 810 497.33 C 816.961 495.691 814.548 494.014 822.052 494.867 C 822.578 495.246 823.104 495.624 823.63 496.002 C 823.797 498.183 823.684 500.557 824.542 502.607 C 823.06 503.974 821.737 505.39 820.427 506.92 C 817.851 507.705 807.297 508.341 811.45 502.741 C 812.258 501.651 810.308 498.666 810 497.33 z"/>
<path transform="translate(0,0)" fill="rgb(234,223,215)" fill-opacity="0.439216" d="M 784.29 489.424 C 795.23 487.38 799.203 487.973 809.931 489.311 C 800.709 502.316 796.918 496.903 784.29 489.424 z"/>
<path transform="translate(0,0)" fill="rgb(234,222,211)" fill-opacity="0.247059" d="M 1249.29 617.217 C 1251.41 618.545 1254.9 619.862 1255.67 622.486 C 1256.48 625.263 1256.19 631.105 1252.51 631.804 C 1251.3 632.023 1250.06 631.737 1249.07 631.013 C 1247.63 629.939 1246.98 627.548 1246.24 625.99 C 1247.63 622.795 1247.72 622.289 1248.69 619.094 L 1249.29 617.217 z"/>
<path transform="translate(0,0)" fill="rgb(237,234,227)" d="M 1110.16 575.68 C 1114.89 575.829 1119.8 575.9 1124.5 576.315 C 1117.28 584.753 1127.78 578.993 1133.22 590.504 C 1127.63 588.019 1115.87 579.52 1110.16 575.68 z"/>
<path transform="translate(0,0)" fill="rgb(237,234,227)" d="M 838.554 588.733 C 842.14 593.192 842.465 591.485 848.311 592.175 C 845.431 595.207 841.45 598.552 838.006 600.959 L 834.472 603.386 C 835.942 598.489 837.166 593.643 838.554 588.733 z"/>
<path transform="translate(0,0)" fill="rgb(234,222,211)" fill-opacity="0.0745098" d="M 1249.19 526.667 C 1250.68 523.797 1252.36 521.395 1254.19 518.728 C 1254.81 528.822 1253.87 524.23 1259.11 531.69 L 1257.19 531.854 L 1256.84 532.87 C 1252.4 531.508 1253.48 535.891 1250.98 534.172 C 1250.78 533.774 1249.58 527.979 1249.19 526.667 z"/>
<path transform="translate(0,0)" fill="rgb(234,223,215)" fill-opacity="0.0196078" d="M 990.309 519.504 L 991.879 519.324 C 998.868 518.477 999.793 519.05 999.033 527.283 C 988.855 526.57 987.914 529.067 990.309 519.504 z"/>
<path transform="translate(0,0)" fill="rgb(234,222,211)" fill-opacity="0.596078" d="M 1205.44 710.639 C 1206.5 707.548 1207.44 705.89 1209.13 703.196 C 1211.21 705.747 1216.98 715.301 1210.27 716.178 C 1207.69 712.488 1209.92 713.439 1205.44 710.639 z"/>
<path transform="translate(0,0)" fill="rgb(234,223,215)" fill-opacity="0.694118" d="M 886.58 568.093 C 892.497 568.165 899.275 568.109 905.059 568.831 C 903.221 568.999 897.754 568.548 897.064 570.621 C 894.633 577.935 888.653 570.554 886.58 568.093 z"/>
<path transform="translate(0,0)" fill="rgb(234,222,211)" fill-opacity="0.556863" d="M 1203.19 715.878 C 1204.31 719.731 1205.63 729.175 1198.75 725.9 C 1200.16 722.146 1201.43 719.441 1203.19 715.878 z"/>
<path transform="translate(0,0)" fill="rgb(234,222,211)" fill-opacity="0.301961" d="M 1257.19 531.854 C 1260.79 532.226 1263.28 532.186 1259.84 535.406 C 1258.74 534.533 1257.83 533.868 1256.84 532.87 L 1257.19 531.854 z"/>
<path transform="translate(0,0)" fill="rgb(234,222,211)" fill-opacity="0.427451" d="M 1268.38 523.272 L 1269.65 523.787 C 1274.29 525.576 1269.32 526.985 1266.56 526.939 L 1268.38 523.272 z"/>
<path transform="translate(0,0)" fill="url(#Gradient1)" d="M 825.723 1401.19 C 827.661 1404.67 826.324 1403.88 829.192 1404.81 C 835.327 1399.53 826.991 1375.36 827.761 1366.29 C 827.522 1354.25 839.516 1327.93 835.291 1316.37 C 829.209 1299.74 824.605 1284.38 823.088 1265.84 C 822.676 1260.8 821.478 1262.26 824.579 1258.14 L 839.839 1310.06 C 842.52 1318.95 846.424 1330.15 848.494 1338.92 C 843.502 1348.65 862.637 1386.56 862.561 1400.86 C 862.481 1415.78 843.945 1452.67 846.382 1463.81 L 848.535 1465.72 C 844.436 1478.91 838.908 1498.13 834.099 1510.51 L 833.824 1508.83 C 824.391 1493.65 838.319 1484.12 836.846 1471.29 C 833.242 1439.92 819.912 1435.62 825.723 1401.19 z"/>
<path transform="translate(0,0)" fill="rgb(237,234,227)" fill-opacity="0.384314" d="M 808.849 1205.02 C 810.552 1210.63 813.31 1218.79 814.607 1224.29 C 806.807 1231.46 817.219 1250.75 818.925 1261.99 C 821.468 1276.52 818.997 1294.61 822.479 1308.39 C 824.892 1317.94 820.417 1319.81 821.131 1326.61 C 823.246 1346.76 827.256 1382.01 825.723 1401.19 C 819.912 1435.62 833.242 1439.92 836.846 1471.29 C 838.319 1484.12 824.391 1493.65 833.824 1508.83 C 823.604 1511.81 824.865 1497.07 824.115 1491.55 C 823.253 1485.21 822.005 1479.09 826.69 1473.73 C 831.74 1467.96 832.029 1456.79 827.513 1450.66 C 824.37 1447.11 822.478 1446.66 821.457 1442.03 C 820.423 1437.34 820.473 1434.36 820.181 1429.5 C 822.25 1413.69 817.804 1386.43 819.873 1369.29 C 820.296 1365.79 815.511 1353.87 815.762 1348.22 C 815.014 1335.15 811.528 1321.13 812.29 1307.64 C 812.421 1305.32 811.772 1296.69 812.358 1294.97 C 815.157 1286.74 815.356 1287.91 812.251 1279.86 C 809.208 1278.34 810.815 1278.7 807.206 1279.04 L 806.041 1279.14 C 797.059 1269.99 806.376 1221.54 806.196 1207.71 C 807.081 1206.81 807.965 1205.92 808.849 1205.02 z"/>
<path transform="translate(0,0)" fill="rgb(237,234,227)" fill-opacity="0.329412" d="M 1065.31 1337.83 C 1071.19 1343.46 1078.28 1352.79 1083.85 1359.08 C 1092.58 1368.94 1101.76 1378.93 1110.19 1389.01 C 1109.69 1396.71 1107.65 1418.77 1106.02 1426.06 C 1105.69 1423.18 1105.53 1420.38 1105.49 1417.49 C 1104.95 1418.01 1104.8 1418.28 1104.08 1418.01 C 1101.93 1414.36 1104.95 1409.33 1096.5 1405.52 C 1092.64 1401.58 1088.89 1398.97 1087.11 1393.98 C 1086.32 1392.53 1086.11 1389.5 1085.04 1388.46 C 1084.54 1388.18 1082.19 1387.2 1082.94 1386.25 C 1085.65 1382.81 1080.02 1384.61 1079.46 1382.95 C 1076.44 1382.59 1067.29 1371.17 1066.65 1368.07 C 1067.64 1365.31 1069.8 1365.89 1071.38 1365.82 C 1072.8 1363.83 1071.89 1356.67 1069.19 1354.29 C 1066.97 1352.34 1064.86 1350.55 1062.95 1348.35 C 1064.71 1348.43 1068.28 1350.02 1068.78 1348.56 C 1070.66 1343.08 1065.61 1345.28 1065.31 1337.83 z"/>
<path transform="translate(0,0)" fill="rgb(237,234,227)" fill-opacity="0.588235" d="M 825.723 1401.19 C 827.256 1382.01 823.246 1346.76 821.131 1326.61 C 820.417 1319.81 824.892 1317.94 822.479 1308.39 C 818.997 1294.61 821.468 1276.52 818.925 1261.99 C 817.219 1250.75 806.807 1231.46 814.607 1224.29 C 818.104 1235.52 821.428 1246.81 824.579 1258.14 C 821.478 1262.26 822.676 1260.8 823.088 1265.84 C 824.605 1284.38 829.209 1299.74 835.291 1316.37 C 839.516 1327.93 827.522 1354.25 827.761 1366.29 C 826.991 1375.36 835.327 1399.53 829.192 1404.81 C 826.324 1403.88 827.661 1404.67 825.723 1401.19 z"/>
<path transform="translate(0,0)" fill="rgb(237,234,227)" fill-opacity="0.239216" d="M 802.647 1184.9 L 808.849 1205.02 C 807.965 1205.92 807.081 1206.81 806.196 1207.71 C 806.376 1221.54 797.059 1269.99 806.041 1279.14 C 805.129 1284.41 810.67 1287.18 807.206 1279.04 C 810.815 1278.7 809.208 1278.34 812.251 1279.86 C 815.356 1287.91 815.157 1286.74 812.358 1294.97 C 811.772 1296.69 812.421 1305.32 812.29 1307.64 C 811.528 1321.13 815.014 1335.15 815.762 1348.22 C 808.231 1337.06 811.01 1329.56 808.719 1317.6 L 808.433 1316.15 C 809.048 1306.52 802.211 1292.71 799.662 1280.94 C 794.88 1261.28 800.092 1240.05 791.141 1221.58 C 789.672 1218.54 791.433 1209.88 791.651 1205.75 C 792.953 1209.25 793.02 1213.18 793.393 1213.88 C 798.632 1215.16 795.632 1192.96 794.23 1190.73 C 793.187 1189.07 793.348 1187.63 794.776 1186.16 C 796.075 1191.51 801.964 1186.17 802.647 1184.9 z"/>
<path transform="translate(0,0)" fill="rgb(237,234,227)" fill-opacity="0.184314" d="M 992.015 1297.76 C 997.767 1294.62 997.116 1296.32 999.982 1288.98 C 1000.87 1286.7 1002.29 1281.03 1004.56 1279.83 C 1005.95 1280 1007.49 1281.98 1007.63 1282.98 C 1008.7 1290.27 1012.39 1284.66 1014.18 1291 C 1014.45 1291.69 1014.72 1292.38 1014.99 1293.07 C 1010.75 1290.48 1013.47 1291.13 1011.66 1288.32 C 1008.02 1286.89 1014.34 1301.02 1004.36 1300.66 C 1000.17 1300.51 1004.25 1307.55 998.461 1302.95 C 998.44 1305.82 997.825 1310.26 1001.52 1311.43 L 1001.55 1311.36 C 1010.53 1308.77 1003.08 1298.04 1009.58 1304.36 C 1009.58 1303.36 1009.37 1302.39 1009.64 1301.4 C 1010.71 1300.94 1014.07 1301.31 1014.99 1302.42 C 1015.12 1303.09 1011.15 1313.22 1010.35 1313.8 L 1009.97 1313.81 C 1009.62 1313.22 1009.73 1313.42 1009.75 1312.6 L 1009.49 1312.17 C 1008.93 1312.84 1010.47 1322.01 1007.12 1321.66 C 1005.28 1316.3 1004.26 1319.93 1004.14 1319.55 C 1005.31 1323.17 1002.08 1321.44 1001.9 1324.47 C 1002.18 1327.69 1005.6 1325.69 1007.59 1328.89 C 1008.15 1328.54 1007.08 1324.46 1009.7 1323.23 L 1010.11 1323.3 C 1011.44 1325.74 1008.62 1337.27 1010.21 1340.23 C 1011.75 1341.16 1012.59 1340.89 1012.59 1339.07 C 1012.93 1337.73 1013.26 1335.81 1013.67 1334.55 C 1014.15 1333.07 1018.05 1326.67 1019.87 1329.52 C 1022.1 1333 1018.83 1336.35 1018.99 1340.51 C 1019.16 1344.76 1017.09 1345.15 1014.59 1346.97 C 1013.93 1347.53 1014.34 1352.81 1016.07 1352.75 C 1018.35 1354.21 1016.7 1357.78 1017.29 1358.79 C 1018.69 1357.82 1021.95 1355.91 1021.28 1359.46 C 1020.91 1361.44 1013.99 1364.13 1018.79 1366.58 L 1018.88 1366.98 C 1018.27 1367.85 1016.19 1372.85 1015.96 1373.96 L 1015.53 1375.88 C 1013.31 1366.32 1010.31 1358.71 1007.72 1349.57 L 996.09 1310.04 C 994.973 1306.19 992.842 1301.46 992.015 1297.76 z"/>
<path transform="translate(0,0)" fill="rgb(237,234,227)" fill-opacity="0.0901961" d="M 990.666 1294.14 C 991.71 1288.6 991.631 1281.72 989.009 1276.55 C 986.228 1271.42 985.088 1264.34 984.221 1258.5 C 983.108 1251.01 982.474 1251.22 988.806 1250.02 C 994.707 1259.26 990.573 1260.43 1002.54 1267.75 C 1009.09 1271.75 1017.82 1284.3 1023.94 1290.28 C 1022.95 1294.23 1023.05 1294.93 1021.77 1298.85 C 1018.76 1304.14 1016.12 1296.17 1014.99 1293.07 C 1014.72 1292.38 1014.45 1291.69 1014.18 1291 C 1012.39 1284.66 1008.7 1290.27 1007.63 1282.98 C 1007.49 1281.98 1005.95 1280 1004.56 1279.83 C 1002.29 1281.03 1000.87 1286.7 999.982 1288.98 C 997.116 1296.32 997.767 1294.62 992.015 1297.76 C 991.571 1296.53 991.159 1295.35 990.666 1294.14 z"/>
<path transform="translate(0,0)" fill="rgb(237,234,227)" fill-opacity="0.0627451" d="M 833.414 1511.9 C 828.85 1510.88 825.011 1523.82 818.578 1509.5 C 815.834 1503.39 819.872 1492.52 819.312 1487.24 C 817.927 1474.19 815.449 1469.44 817.728 1456.63 C 819.318 1447.7 815.134 1441.31 820.181 1429.5 C 820.473 1434.36 820.423 1437.34 821.457 1442.03 C 822.478 1446.66 824.37 1447.11 827.513 1450.66 C 832.029 1456.79 831.74 1467.96 826.69 1473.73 C 822.005 1479.09 823.253 1485.21 824.115 1491.55 C 824.865 1497.07 823.604 1511.81 833.824 1508.83 L 834.099 1510.51 C 833.87 1510.97 833.642 1511.44 833.414 1511.9 z"/>
<path transform="translate(0,0)" fill="rgb(237,234,227)" fill-opacity="0.109804" d="M 808.433 1316.15 C 799.253 1291.58 795.727 1272.15 792.847 1246.09 C 791.401 1233 776.962 1179.57 792.502 1172.75 C 797.385 1175.35 796.954 1176.49 800.319 1178.66 L 801.455 1181.84 C 801.344 1182.06 800.76 1183.28 800.506 1183.45 C 799.954 1182.78 799.796 1182.24 799.414 1181.39 C 798.524 1180.95 794.075 1178.87 793.649 1179.28 C 791.332 1181.49 787.848 1191.07 787.042 1193.45 C 789.104 1198.33 790.852 1200.6 791.651 1205.75 C 791.433 1209.88 789.672 1218.54 791.141 1221.58 C 800.092 1240.05 794.88 1261.28 799.662 1280.94 C 802.211 1292.71 809.048 1306.52 808.433 1316.15 z"/>
<path transform="translate(0,0)" fill="rgb(237,234,227)" fill-opacity="0.0941176" d="M 1042 1319.86 C 1044.38 1317.74 1045.65 1317.93 1048.85 1318.6 C 1053.85 1324.8 1060.8 1331.43 1065.31 1337.83 C 1065.61 1345.28 1070.66 1343.08 1068.78 1348.56 C 1068.28 1350.02 1064.71 1348.43 1062.95 1348.35 C 1059.15 1342.81 1061.31 1343.26 1054.5 1342.11 C 1053.09 1341.87 1053.33 1332.23 1047.86 1332.18 C 1045.2 1332.16 1046.54 1329.67 1045.24 1326.78 C 1042.9 1321.59 1041.47 1323.1 1040.12 1321.65 C 1040.49 1320.91 1041.37 1320.36 1042 1319.86 z"/>
<path transform="translate(0,0)" fill="rgb(237,234,227)" fill-opacity="0.372549" d="M 1023.94 1290.28 C 1029.26 1295.74 1044.77 1312.92 1048.85 1318.6 C 1045.65 1317.93 1044.38 1317.74 1042 1319.86 C 1041.43 1316.97 1038.35 1314.32 1035.84 1313.3 C 1033.83 1314.49 1037.47 1317.52 1036.24 1318.45 C 1035.2 1318.3 1033.82 1317.6 1033.25 1316.76 C 1032.32 1314.97 1029.96 1315.23 1028.54 1314.19 C 1027.05 1313.09 1022.21 1312.42 1023.82 1309.65 C 1024.03 1309.24 1024.23 1308.82 1024.44 1308.41 C 1025.47 1306.45 1022.38 1304.63 1023.25 1302.99 C 1024.79 1300.86 1025.46 1299.14 1021.77 1298.85 C 1023.05 1294.93 1022.95 1294.23 1023.94 1290.28 z"/>
<path transform="translate(0,0)" fill="rgb(237,234,227)" fill-opacity="0.301961" d="M 1096.5 1405.52 C 1104.95 1409.33 1101.93 1414.36 1104.08 1418.01 C 1104.8 1418.28 1104.95 1418.01 1105.49 1417.49 C 1105.53 1420.38 1105.69 1423.18 1106.02 1426.06 C 1105.98 1428.22 1106.18 1429.71 1105.34 1431.65 C 1100.58 1428.71 1102.08 1438.2 1098.99 1437.91 C 1087.06 1436.78 1088.96 1426.33 1085.37 1417.81 C 1084.19 1415.01 1078.74 1409.53 1080.99 1407.22 C 1082.88 1406.95 1081.75 1409.44 1085.85 1408.55 C 1093.48 1412.2 1088.49 1433.8 1094.04 1434.97 C 1095.03 1434.59 1095.39 1433.44 1096.43 1433.15 C 1096.75 1433.32 1096.99 1433.52 1097 1433.96 C 1097.09 1437.9 1099.97 1437.62 1099.97 1434 C 1099.97 1431.53 1100.6 1431.46 1100.73 1429.77 C 1099.16 1427.08 1099.02 1423.59 1098.37 1420.52 C 1097.84 1418.04 1102.06 1418.68 1101.54 1415.5 C 1100.88 1415.84 1101.21 1415.75 1100.56 1415.84 C 1100.15 1415.67 1096.5 1406.44 1096.5 1405.52 z"/>
<path transform="translate(0,0)" fill="rgb(237,234,227)" fill-opacity="0.180392" d="M 787.042 1193.45 C 787.848 1191.07 791.332 1181.49 793.649 1179.28 C 794.075 1178.87 798.524 1180.95 799.414 1181.39 C 796.181 1184.18 796.498 1181.91 794.776 1186.16 C 793.348 1187.63 793.187 1189.07 794.23 1190.73 C 795.632 1192.96 798.632 1215.16 793.393 1213.88 C 793.02 1213.18 792.953 1209.25 791.651 1205.75 C 790.852 1200.6 789.104 1198.33 787.042 1193.45 z"/>
<path transform="translate(0,0)" fill="rgb(237,234,227)" fill-opacity="0.227451" d="M 801.455 1181.84 C 801.884 1182.86 802.255 1183.87 802.647 1184.9 C 801.964 1186.17 796.075 1191.51 794.776 1186.16 C 796.498 1181.91 796.181 1184.18 799.414 1181.39 C 799.796 1182.24 799.954 1182.78 800.506 1183.45 C 800.76 1183.28 801.344 1182.06 801.455 1181.84 z"/>
<path transform="translate(0,0)" fill="rgb(237,234,227)" fill-opacity="0.45098" d="M 709.117 598.651 C 711.941 600.805 711.371 602.079 710.908 605.574 C 707.772 606.405 708.867 602.907 709.014 600.515 L 709.117 598.651 z"/>
<path transform="translate(0,0)" fill="rgb(237,234,227)" fill-opacity="0.309804" d="M 806.041 1279.14 L 807.206 1279.04 C 810.67 1287.18 805.129 1284.41 806.041 1279.14 z"/>
<path transform="translate(0,0)" fill="rgb(237,234,227)" fill-opacity="0.0980392" d="M 716.8 581.631 C 717.17 581.517 718.281 580.94 718.793 581.351 C 718.639 582.296 717.487 582.419 716.68 582.658 C 716.048 582.75 715.726 582.916 715.24 582.625 C 715.129 581.717 715.896 581.809 716.8 581.631 z"/>
</svg>